<svg width="23" height="24" viewBox="0 0 23 24" fill="none" xmlns="http://www.w3.org/2000/svg">
<path d="M11.4998 17.0001C8.73136 17.0001 6.479 14.7571 6.479 12.0001C6.479 9.24304 8.73136 7 11.4998 7C14.2681 7 16.5205 9.24304 16.5205 12.0001C16.5205 14.7571 14.2681 17.0001 11.4998 17.0001ZM11.4998 8.5C9.5617 8.5 7.98523 10.0701 7.98523 12.0001C7.98523 13.93 9.5617 15.5001 11.4998 15.5001C13.4378 15.5001 15.0142 13.93 15.0142 12.0001C15.0142 10.0701 13.4378 8.5 11.4998 8.5Z" fill="#0D5EA6"/>
<path d="M13.1698 24H9.82984C9.02653 24 8.31663 23.432 8.14196 22.649L7.71925 20.777C7.0303 20.486 6.37354 20.1061 5.75703 19.6421L3.92647 20.218C3.14118 20.4609 2.28767 20.129 1.89401 19.429L0.229294 16.5621C-0.169511 15.852 -0.0349216 14.978 0.55161 14.428L1.97032 13.129C1.92729 12.748 1.90615 12.3701 1.90615 12C1.90615 11.6299 1.92729 11.252 1.9694 10.871L0.558597 9.57806C-0.0349215 9.02197 -0.170431 8.14801 0.224145 7.44708L1.89916 4.56207C2.28767 3.86993 3.1432 3.54108 3.92352 3.78003L5.75703 4.35699C6.37354 3.89301 7.0303 3.51306 7.71925 3.22192L8.14288 1.34802C8.31663 0.567993 9.02653 0 9.82984 0H13.1698C13.9731 0 14.683 0.567993 14.8577 1.35095L15.2804 3.22302C15.9693 3.51398 16.6261 3.89392 17.2426 4.35791L19.0731 3.78204C19.8605 3.54108 20.7119 3.87103 21.1056 4.57104L22.7705 7.43793C23.1691 8.14801 23.0345 9.02197 22.448 9.57202L21.0293 10.871C21.0714 11.252 21.0925 11.631 21.0925 12C21.0925 12.369 21.0714 12.748 21.0293 13.129L22.441 14.421C22.443 14.423 22.4451 14.425 22.448 14.4271C23.0345 14.9769 23.17 15.8511 22.7755 16.552L21.1004 19.437C20.7119 20.129 19.8584 20.46 19.0752 20.218L17.2415 19.641C16.625 20.105 15.9682 20.4849 15.2794 20.7761L14.8556 22.65C14.683 23.432 13.9731 24 13.1698 24ZM5.91075 18.059C6.0834 18.059 6.2531 18.1179 6.38972 18.23C7.07958 18.795 7.83159 19.231 8.62791 19.5231C8.86786 19.611 9.04566 19.814 9.10192 20.062L9.61307 22.322C9.63605 22.426 9.72743 22.5 9.83095 22.5H13.1707C13.2742 22.5 13.3656 22.426 13.3876 22.324L13.8997 20.062C13.956 19.814 14.1338 19.611 14.3737 19.5231C15.1689 19.231 15.9221 18.795 16.6119 18.23C16.8088 18.0679 17.0738 18.0159 17.318 18.093L19.528 18.7881C19.6334 18.821 19.7459 18.782 19.7941 18.696L21.4691 15.811C21.5193 15.722 21.5011 15.6 21.4209 15.522L19.7259 13.97C19.542 13.8019 19.4537 13.5529 19.4909 13.307C19.5571 12.8641 19.5904 12.4241 19.5904 11.9991C19.5904 11.5739 19.5571 11.1339 19.4909 10.691C19.4537 10.4451 19.542 10.197 19.7259 10.028L21.4248 8.47192C21.5011 8.40106 21.5193 8.27692 21.4639 8.17804L19.799 5.31097C19.745 5.21594 19.6304 5.17804 19.526 5.211L17.3189 5.90497C17.0758 5.98206 16.8109 5.93005 16.613 5.76801C15.9232 5.20294 15.171 4.76697 14.3746 4.47491C14.1347 4.38702 13.9569 4.18396 13.9008 3.93604L13.3897 1.67596C13.3645 1.57397 13.2731 1.5 13.1698 1.5H9.82984C9.72651 1.5 9.63513 1.57397 9.61307 1.67596L9.10082 3.93805C9.04474 4.18597 8.86694 4.38794 8.62699 4.47693C7.83159 4.76898 7.07848 5.20496 6.38972 5.77002C6.19188 5.93207 5.92472 5.98297 5.68385 5.90698L3.4736 5.21191C3.37027 5.18005 3.25572 5.21796 3.20755 5.30402L1.53253 8.18793C1.48234 8.27802 1.50054 8.40198 1.58383 8.47998L3.27687 10.0291C3.46055 10.197 3.54899 10.446 3.51185 10.6921C3.44547 11.135 3.41238 11.575 3.41238 12C3.41238 12.425 3.44547 12.865 3.51185 13.3079C3.54899 13.554 3.46055 13.8019 3.27687 13.9709L1.57776 15.527C1.50146 15.598 1.48344 15.722 1.5386 15.821L3.20351 18.6879C3.25664 18.783 3.37119 18.8199 3.47655 18.7881L5.68385 18.0939C5.75814 18.0699 5.83444 18.059 5.91075 18.059Z" fill="#0D5EA6"/>
</svg>
