<svg width="164" height="176" viewBox="0 0 164 176" fill="none" xmlns="http://www.w3.org/2000/svg">
<rect x="0.5" y="0.5" width="163" height="175" rx="4.5" stroke="#9747FF" stroke-dasharray="10 5"/>
<g filter="url(#filter0_d_20_49)">
<rect x="20" y="20" width="124" height="32" rx="12" fill="#0D5EA6"/>
</g>
<path d="M52.344 41.08V39.256H55.272C55.8053 39.256 56.2107 39.112 56.488 38.824C56.7653 38.5253 56.904 38.12 56.904 37.608C56.904 37.096 56.7653 36.7013 56.488 36.424C56.2107 36.136 55.8053 35.992 55.272 35.992H52.344V34.6H55.112C55.8907 34.6 56.584 34.696 57.192 34.888C57.8107 35.0693 58.2907 35.3787 58.632 35.816C58.984 36.2533 59.16 36.84 59.16 37.576V37.8C59.16 38.4933 59.0053 39.0853 58.696 39.576C58.3973 40.056 57.944 40.4293 57.336 40.696C56.7387 40.952 55.9973 41.08 55.112 41.08H52.344ZM50.44 41.08V29.24H52.664V41.08H50.44ZM52.344 35.624V34.232H54.84C55.384 34.232 55.784 34.088 56.04 33.8C56.296 33.512 56.424 33.128 56.424 32.648C56.424 32.168 56.296 31.784 56.04 31.496C55.784 31.208 55.384 31.064 54.84 31.064H52.344V29.24H54.632C55.9547 29.24 56.9573 29.5173 57.64 30.072C58.3333 30.6267 58.68 31.4213 58.68 32.456V32.68C58.68 33.4053 58.504 33.9867 58.152 34.424C57.8107 34.8507 57.336 35.16 56.728 35.352C56.12 35.5333 55.4213 35.624 54.632 35.624H52.344ZM66.6436 41V38.424H66.2756V35.56C66.2756 35.0587 66.153 34.6853 65.9076 34.44C65.6623 34.1947 65.2836 34.072 64.7716 34.072C64.505 34.072 64.185 34.0773 63.8116 34.088C63.4383 34.0987 63.0596 34.1147 62.6756 34.136C62.3023 34.1467 61.9663 34.1627 61.6676 34.184V32.296C61.913 32.2747 62.1903 32.2533 62.4996 32.232C62.809 32.2107 63.1236 32.2 63.4436 32.2C63.7743 32.1893 64.0836 32.184 64.3716 32.184C65.2676 32.184 66.009 32.3013 66.5956 32.536C67.193 32.7707 67.641 33.1387 67.9396 33.64C68.249 34.1413 68.4036 34.7973 68.4036 35.608V41H66.6436ZM63.8436 41.224C63.2143 41.224 62.6596 41.112 62.1796 40.888C61.7103 40.664 61.3423 40.344 61.0756 39.928C60.8196 39.512 60.6916 39.0107 60.6916 38.424C60.6916 37.784 60.8463 37.2613 61.1556 36.856C61.4756 36.4507 61.9183 36.1467 62.4836 35.944C63.0596 35.7413 63.7316 35.64 64.4996 35.64H66.5156V36.968H64.4676C63.9556 36.968 63.561 37.096 63.2836 37.352C63.017 37.5973 62.8836 37.9173 62.8836 38.312C62.8836 38.7067 63.017 39.0267 63.2836 39.272C63.561 39.5173 63.9556 39.64 64.4676 39.64C64.777 39.64 65.0596 39.5867 65.3156 39.48C65.5823 39.3627 65.801 39.1707 65.9716 38.904C66.153 38.6267 66.2543 38.2533 66.2756 37.784L66.8196 38.408C66.7663 39.016 66.617 39.528 66.3716 39.944C66.137 40.36 65.8063 40.68 65.3796 40.904C64.9636 41.1173 64.4516 41.224 63.8436 41.224ZM63.6036 31.208L65.0276 27.928H67.3316L65.5076 31.208H63.6036ZM75.0619 41.304C74.2939 41.304 73.6165 41.1813 73.0299 40.936C72.4432 40.6907 71.9472 40.36 71.5419 39.944C71.1365 39.5173 70.8272 39.0373 70.6139 38.504C70.4112 37.9707 70.3099 37.416 70.3099 36.84V36.504C70.3099 35.9067 70.4165 35.3413 70.6299 34.808C70.8539 34.264 71.1685 33.784 71.5739 33.368C71.9899 32.9413 72.4912 32.6107 73.0779 32.376C73.6645 32.1307 74.3259 32.008 75.0619 32.008C75.7979 32.008 76.4592 32.1307 77.0459 32.376C77.6325 32.6107 78.1285 32.9413 78.5339 33.368C78.9499 33.784 79.2645 34.264 79.4779 34.808C79.6912 35.3413 79.7979 35.9067 79.7979 36.504V36.84C79.7979 37.416 79.6912 37.9707 79.4779 38.504C79.2752 39.0373 78.9712 39.5173 78.5659 39.944C78.1605 40.36 77.6645 40.6907 77.0779 40.936C76.4912 41.1813 75.8192 41.304 75.0619 41.304ZM75.0619 39.4C75.6059 39.4 76.0645 39.2827 76.4379 39.048C76.8112 38.8027 77.0939 38.4773 77.2859 38.072C77.4779 37.656 77.5739 37.1867 77.5739 36.664C77.5739 36.1307 77.4725 35.6613 77.2699 35.256C77.0779 34.84 76.7899 34.5147 76.4059 34.28C76.0325 34.0347 75.5845 33.912 75.0619 33.912C74.5392 33.912 74.0859 34.0347 73.7019 34.28C73.3285 34.5147 73.0405 34.84 72.8379 35.256C72.6352 35.6613 72.5339 36.1307 72.5339 36.664C72.5339 37.1867 72.6299 37.656 72.8219 38.072C73.0245 38.4773 73.3125 38.8027 73.6859 39.048C74.0592 39.2827 74.5179 39.4 75.0619 39.4ZM89.2544 41.304C88.497 41.304 87.841 41.176 87.2864 40.92C86.7424 40.664 86.2837 40.3227 85.9104 39.896C85.5477 39.4693 85.2757 38.9893 85.0944 38.456C84.913 37.9227 84.8224 37.3787 84.8224 36.824V36.52C84.8224 35.9333 84.913 35.3733 85.0944 34.84C85.2864 34.296 85.569 33.816 85.9424 33.4C86.3157 32.9733 86.7744 32.6373 87.3184 32.392C87.873 32.136 88.513 32.008 89.2384 32.008C89.9957 32.008 90.673 32.1573 91.2704 32.456C91.8677 32.744 92.3424 33.1493 92.6944 33.672C93.057 34.1947 93.2597 34.8027 93.3024 35.496H91.1424C91.089 35.048 90.897 34.6747 90.5664 34.376C90.2464 34.0773 89.8037 33.928 89.2384 33.928C88.7477 33.928 88.337 34.0453 88.0064 34.28C87.6864 34.5147 87.4464 34.84 87.2864 35.256C87.1264 35.6613 87.0464 36.1307 87.0464 36.664C87.0464 37.176 87.121 37.64 87.2704 38.056C87.4304 38.472 87.6704 38.7973 87.9904 39.032C88.321 39.2667 88.7424 39.384 89.2544 39.384C89.6384 39.384 89.969 39.3147 90.2464 39.176C90.5237 39.0373 90.7424 38.8453 90.9024 38.6C91.073 38.3547 91.1797 38.0773 91.2224 37.768H93.3824C93.3397 38.472 93.1317 39.0907 92.7584 39.624C92.3957 40.1467 91.9104 40.5573 91.3024 40.856C90.705 41.1547 90.0224 41.304 89.2544 41.304ZM100.528 41V38.424H100.16V35.56C100.16 35.0587 100.037 34.6853 99.792 34.44C99.5467 34.1947 99.168 34.072 98.656 34.072C98.3893 34.072 98.0693 34.0773 97.696 34.088C97.3227 34.0987 96.944 34.1147 96.56 34.136C96.1867 34.1467 95.8507 34.1627 95.552 34.184V32.296C95.7973 32.2747 96.0747 32.2533 96.384 32.232C96.6933 32.2107 97.008 32.2 97.328 32.2C97.6587 32.1893 97.968 32.184 98.256 32.184C99.152 32.184 99.8933 32.3013 100.48 32.536C101.077 32.7707 101.525 33.1387 101.824 33.64C102.133 34.1413 102.288 34.7973 102.288 35.608V41H100.528ZM97.728 41.224C97.0987 41.224 96.544 41.112 96.064 40.888C95.5947 40.664 95.2267 40.344 94.96 39.928C94.704 39.512 94.576 39.0107 94.576 38.424C94.576 37.784 94.7307 37.2613 95.04 36.856C95.36 36.4507 95.8027 36.1467 96.368 35.944C96.944 35.7413 97.616 35.64 98.384 35.64H100.4V36.968H98.352C97.84 36.968 97.4453 37.096 97.168 37.352C96.9013 37.5973 96.768 37.9173 96.768 38.312C96.768 38.7067 96.9013 39.0267 97.168 39.272C97.4453 39.5173 97.84 39.64 98.352 39.64C98.6613 39.64 98.944 39.5867 99.2 39.48C99.4667 39.3627 99.6853 39.1707 99.856 38.904C100.037 38.6267 100.139 38.2533 100.16 37.784L100.704 38.408C100.651 39.016 100.501 39.528 100.256 39.944C100.021 40.36 99.6907 40.68 99.264 40.904C98.848 41.1173 98.336 41.224 97.728 41.224ZM97.488 31.208L98.912 27.928H101.216L99.392 31.208H97.488ZM108.946 41.304C108.178 41.304 107.501 41.1813 106.914 40.936C106.328 40.6907 105.832 40.36 105.426 39.944C105.021 39.5173 104.712 39.0373 104.498 38.504C104.296 37.9707 104.194 37.416 104.194 36.84V36.504C104.194 35.9067 104.301 35.3413 104.514 34.808C104.738 34.264 105.053 33.784 105.458 33.368C105.874 32.9413 106.376 32.6107 106.962 32.376C107.549 32.1307 108.21 32.008 108.946 32.008C109.682 32.008 110.344 32.1307 110.93 32.376C111.517 32.6107 112.013 32.9413 112.418 33.368C112.834 33.784 113.149 34.264 113.362 34.808C113.576 35.3413 113.682 35.9067 113.682 36.504V36.84C113.682 37.416 113.576 37.9707 113.362 38.504C113.16 39.0373 112.856 39.5173 112.45 39.944C112.045 40.36 111.549 40.6907 110.962 40.936C110.376 41.1813 109.704 41.304 108.946 41.304ZM108.946 39.4C109.49 39.4 109.949 39.2827 110.322 39.048C110.696 38.8027 110.978 38.4773 111.17 38.072C111.362 37.656 111.458 37.1867 111.458 36.664C111.458 36.1307 111.357 35.6613 111.154 35.256C110.962 34.84 110.674 34.5147 110.29 34.28C109.917 34.0347 109.469 33.912 108.946 33.912C108.424 33.912 107.97 34.0347 107.586 34.28C107.213 34.5147 106.925 34.84 106.722 35.256C106.52 35.6613 106.418 36.1307 106.418 36.664C106.418 37.1867 106.514 37.656 106.706 38.072C106.909 38.4773 107.197 38.8027 107.57 39.048C107.944 39.2827 108.402 39.4 108.946 39.4Z" fill="white"/>
<g filter="url(#filter1_d_20_49)">
<rect x="20" y="72" width="124" height="32" rx="12" fill="#0EA5E9"/>
</g>
<path d="M52.344 93.08V91.256H55.272C55.8053 91.256 56.2107 91.112 56.488 90.824C56.7653 90.5253 56.904 90.12 56.904 89.608C56.904 89.096 56.7653 88.7013 56.488 88.424C56.2107 88.136 55.8053 87.992 55.272 87.992H52.344V86.6H55.112C55.8907 86.6 56.584 86.696 57.192 86.888C57.8107 87.0693 58.2907 87.3787 58.632 87.816C58.984 88.2533 59.16 88.84 59.16 89.576V89.8C59.16 90.4933 59.0053 91.0853 58.696 91.576C58.3973 92.056 57.944 92.4293 57.336 92.696C56.7387 92.952 55.9973 93.08 55.112 93.08H52.344ZM50.44 93.08V81.24H52.664V93.08H50.44ZM52.344 87.624V86.232H54.84C55.384 86.232 55.784 86.088 56.04 85.8C56.296 85.512 56.424 85.128 56.424 84.648C56.424 84.168 56.296 83.784 56.04 83.496C55.784 83.208 55.384 83.064 54.84 83.064H52.344V81.24H54.632C55.9547 81.24 56.9573 81.5173 57.64 82.072C58.3333 82.6267 58.68 83.4213 58.68 84.456V84.68C58.68 85.4053 58.504 85.9867 58.152 86.424C57.8107 86.8507 57.336 87.16 56.728 87.352C56.12 87.5333 55.4213 87.624 54.632 87.624H52.344ZM66.6436 93V90.424H66.2756V87.56C66.2756 87.0587 66.153 86.6853 65.9076 86.44C65.6623 86.1947 65.2836 86.072 64.7716 86.072C64.505 86.072 64.185 86.0773 63.8116 86.088C63.4383 86.0987 63.0596 86.1147 62.6756 86.136C62.3023 86.1467 61.9663 86.1627 61.6676 86.184V84.296C61.913 84.2747 62.1903 84.2533 62.4996 84.232C62.809 84.2107 63.1236 84.2 63.4436 84.2C63.7743 84.1893 64.0836 84.184 64.3716 84.184C65.2676 84.184 66.009 84.3013 66.5956 84.536C67.193 84.7707 67.641 85.1387 67.9396 85.64C68.249 86.1413 68.4036 86.7973 68.4036 87.608V93H66.6436ZM63.8436 93.224C63.2143 93.224 62.6596 93.112 62.1796 92.888C61.7103 92.664 61.3423 92.344 61.0756 91.928C60.8196 91.512 60.6916 91.0107 60.6916 90.424C60.6916 89.784 60.8463 89.2613 61.1556 88.856C61.4756 88.4507 61.9183 88.1467 62.4836 87.944C63.0596 87.7413 63.7316 87.64 64.4996 87.64H66.5156V88.968H64.4676C63.9556 88.968 63.561 89.096 63.2836 89.352C63.017 89.5973 62.8836 89.9173 62.8836 90.312C62.8836 90.7067 63.017 91.0267 63.2836 91.272C63.561 91.5173 63.9556 91.64 64.4676 91.64C64.777 91.64 65.0596 91.5867 65.3156 91.48C65.5823 91.3627 65.801 91.1707 65.9716 90.904C66.153 90.6267 66.2543 90.2533 66.2756 89.784L66.8196 90.408C66.7663 91.016 66.617 91.528 66.3716 91.944C66.137 92.36 65.8063 92.68 65.3796 92.904C64.9636 93.1173 64.4516 93.224 63.8436 93.224ZM63.6036 83.208L65.0276 79.928H67.3316L65.5076 83.208H63.6036ZM75.0619 93.304C74.2939 93.304 73.6165 93.1813 73.0299 92.936C72.4432 92.6907 71.9472 92.36 71.5419 91.944C71.1365 91.5173 70.8272 91.0373 70.6139 90.504C70.4112 89.9707 70.3099 89.416 70.3099 88.84V88.504C70.3099 87.9067 70.4165 87.3413 70.6299 86.808C70.8539 86.264 71.1685 85.784 71.5739 85.368C71.9899 84.9413 72.4912 84.6107 73.0779 84.376C73.6645 84.1307 74.3259 84.008 75.0619 84.008C75.7979 84.008 76.4592 84.1307 77.0459 84.376C77.6325 84.6107 78.1285 84.9413 78.5339 85.368C78.9499 85.784 79.2645 86.264 79.4779 86.808C79.6912 87.3413 79.7979 87.9067 79.7979 88.504V88.84C79.7979 89.416 79.6912 89.9707 79.4779 90.504C79.2752 91.0373 78.9712 91.5173 78.5659 91.944C78.1605 92.36 77.6645 92.6907 77.0779 92.936C76.4912 93.1813 75.8192 93.304 75.0619 93.304ZM75.0619 91.4C75.6059 91.4 76.0645 91.2827 76.4379 91.048C76.8112 90.8027 77.0939 90.4773 77.2859 90.072C77.4779 89.656 77.5739 89.1867 77.5739 88.664C77.5739 88.1307 77.4725 87.6613 77.2699 87.256C77.0779 86.84 76.7899 86.5147 76.4059 86.28C76.0325 86.0347 75.5845 85.912 75.0619 85.912C74.5392 85.912 74.0859 86.0347 73.7019 86.28C73.3285 86.5147 73.0405 86.84 72.8379 87.256C72.6352 87.6613 72.5339 88.1307 72.5339 88.664C72.5339 89.1867 72.6299 89.656 72.8219 90.072C73.0245 90.4773 73.3125 90.8027 73.6859 91.048C74.0592 91.2827 74.5179 91.4 75.0619 91.4ZM89.2544 93.304C88.497 93.304 87.841 93.176 87.2864 92.92C86.7424 92.664 86.2837 92.3227 85.9104 91.896C85.5477 91.4693 85.2757 90.9893 85.0944 90.456C84.913 89.9227 84.8224 89.3787 84.8224 88.824V88.52C84.8224 87.9333 84.913 87.3733 85.0944 86.84C85.2864 86.296 85.569 85.816 85.9424 85.4C86.3157 84.9733 86.7744 84.6373 87.3184 84.392C87.873 84.136 88.513 84.008 89.2384 84.008C89.9957 84.008 90.673 84.1573 91.2704 84.456C91.8677 84.744 92.3424 85.1493 92.6944 85.672C93.057 86.1947 93.2597 86.8027 93.3024 87.496H91.1424C91.089 87.048 90.897 86.6747 90.5664 86.376C90.2464 86.0773 89.8037 85.928 89.2384 85.928C88.7477 85.928 88.337 86.0453 88.0064 86.28C87.6864 86.5147 87.4464 86.84 87.2864 87.256C87.1264 87.6613 87.0464 88.1307 87.0464 88.664C87.0464 89.176 87.121 89.64 87.2704 90.056C87.4304 90.472 87.6704 90.7973 87.9904 91.032C88.321 91.2667 88.7424 91.384 89.2544 91.384C89.6384 91.384 89.969 91.3147 90.2464 91.176C90.5237 91.0373 90.7424 90.8453 90.9024 90.6C91.073 90.3547 91.1797 90.0773 91.2224 89.768H93.3824C93.3397 90.472 93.1317 91.0907 92.7584 91.624C92.3957 92.1467 91.9104 92.5573 91.3024 92.856C90.705 93.1547 90.0224 93.304 89.2544 93.304ZM100.528 93V90.424H100.16V87.56C100.16 87.0587 100.037 86.6853 99.792 86.44C99.5467 86.1947 99.168 86.072 98.656 86.072C98.3893 86.072 98.0693 86.0773 97.696 86.088C97.3227 86.0987 96.944 86.1147 96.56 86.136C96.1867 86.1467 95.8507 86.1627 95.552 86.184V84.296C95.7973 84.2747 96.0747 84.2533 96.384 84.232C96.6933 84.2107 97.008 84.2 97.328 84.2C97.6587 84.1893 97.968 84.184 98.256 84.184C99.152 84.184 99.8933 84.3013 100.48 84.536C101.077 84.7707 101.525 85.1387 101.824 85.64C102.133 86.1413 102.288 86.7973 102.288 87.608V93H100.528ZM97.728 93.224C97.0987 93.224 96.544 93.112 96.064 92.888C95.5947 92.664 95.2267 92.344 94.96 91.928C94.704 91.512 94.576 91.0107 94.576 90.424C94.576 89.784 94.7307 89.2613 95.04 88.856C95.36 88.4507 95.8027 88.1467 96.368 87.944C96.944 87.7413 97.616 87.64 98.384 87.64H100.4V88.968H98.352C97.84 88.968 97.4453 89.096 97.168 89.352C96.9013 89.5973 96.768 89.9173 96.768 90.312C96.768 90.7067 96.9013 91.0267 97.168 91.272C97.4453 91.5173 97.84 91.64 98.352 91.64C98.6613 91.64 98.944 91.5867 99.2 91.48C99.4667 91.3627 99.6853 91.1707 99.856 90.904C100.037 90.6267 100.139 90.2533 100.16 89.784L100.704 90.408C100.651 91.016 100.501 91.528 100.256 91.944C100.021 92.36 99.6907 92.68 99.264 92.904C98.848 93.1173 98.336 93.224 97.728 93.224ZM97.488 83.208L98.912 79.928H101.216L99.392 83.208H97.488ZM108.946 93.304C108.178 93.304 107.501 93.1813 106.914 92.936C106.328 92.6907 105.832 92.36 105.426 91.944C105.021 91.5173 104.712 91.0373 104.498 90.504C104.296 89.9707 104.194 89.416 104.194 88.84V88.504C104.194 87.9067 104.301 87.3413 104.514 86.808C104.738 86.264 105.053 85.784 105.458 85.368C105.874 84.9413 106.376 84.6107 106.962 84.376C107.549 84.1307 108.21 84.008 108.946 84.008C109.682 84.008 110.344 84.1307 110.93 84.376C111.517 84.6107 112.013 84.9413 112.418 85.368C112.834 85.784 113.149 86.264 113.362 86.808C113.576 87.3413 113.682 87.9067 113.682 88.504V88.84C113.682 89.416 113.576 89.9707 113.362 90.504C113.16 91.0373 112.856 91.5173 112.45 91.944C112.045 92.36 111.549 92.6907 110.962 92.936C110.376 93.1813 109.704 93.304 108.946 93.304ZM108.946 91.4C109.49 91.4 109.949 91.2827 110.322 91.048C110.696 90.8027 110.978 90.4773 111.17 90.072C111.362 89.656 111.458 89.1867 111.458 88.664C111.458 88.1307 111.357 87.6613 111.154 87.256C110.962 86.84 110.674 86.5147 110.29 86.28C109.917 86.0347 109.469 85.912 108.946 85.912C108.424 85.912 107.97 86.0347 107.586 86.28C107.213 86.5147 106.925 86.84 106.722 87.256C106.52 87.6613 106.418 88.1307 106.418 88.664C106.418 89.1867 106.514 89.656 106.706 90.072C106.909 90.4773 107.197 90.8027 107.57 91.048C107.944 91.2827 108.402 91.4 108.946 91.4Z" fill="white"/>
<g filter="url(#filter2_d_20_49)">
<rect x="20" y="124" width="124" height="32" rx="12" fill="white"/>
<rect x="21" y="125" width="122" height="30" rx="11" stroke="#0EA5E9" stroke-width="2"/>
</g>
<path d="M52.344 145.08V143.256H55.272C55.8053 143.256 56.2107 143.112 56.488 142.824C56.7653 142.525 56.904 142.12 56.904 141.608C56.904 141.096 56.7653 140.701 56.488 140.424C56.2107 140.136 55.8053 139.992 55.272 139.992H52.344V138.6H55.112C55.8907 138.6 56.584 138.696 57.192 138.888C57.8107 139.069 58.2907 139.379 58.632 139.816C58.984 140.253 59.16 140.84 59.16 141.576V141.8C59.16 142.493 59.0053 143.085 58.696 143.576C58.3973 144.056 57.944 144.429 57.336 144.696C56.7387 144.952 55.9973 145.08 55.112 145.08H52.344ZM50.44 145.08V133.24H52.664V145.08H50.44ZM52.344 139.624V138.232H54.84C55.384 138.232 55.784 138.088 56.04 137.8C56.296 137.512 56.424 137.128 56.424 136.648C56.424 136.168 56.296 135.784 56.04 135.496C55.784 135.208 55.384 135.064 54.84 135.064H52.344V133.24H54.632C55.9547 133.24 56.9573 133.517 57.64 134.072C58.3333 134.627 58.68 135.421 58.68 136.456V136.68C58.68 137.405 58.504 137.987 58.152 138.424C57.8107 138.851 57.336 139.16 56.728 139.352C56.12 139.533 55.4213 139.624 54.632 139.624H52.344ZM66.6436 145V142.424H66.2756V139.56C66.2756 139.059 66.153 138.685 65.9076 138.44C65.6623 138.195 65.2836 138.072 64.7716 138.072C64.505 138.072 64.185 138.077 63.8116 138.088C63.4383 138.099 63.0596 138.115 62.6756 138.136C62.3023 138.147 61.9663 138.163 61.6676 138.184V136.296C61.913 136.275 62.1903 136.253 62.4996 136.232C62.809 136.211 63.1236 136.2 63.4436 136.2C63.7743 136.189 64.0836 136.184 64.3716 136.184C65.2676 136.184 66.009 136.301 66.5956 136.536C67.193 136.771 67.641 137.139 67.9396 137.64C68.249 138.141 68.4036 138.797 68.4036 139.608V145H66.6436ZM63.8436 145.224C63.2143 145.224 62.6596 145.112 62.1796 144.888C61.7103 144.664 61.3423 144.344 61.0756 143.928C60.8196 143.512 60.6916 143.011 60.6916 142.424C60.6916 141.784 60.8463 141.261 61.1556 140.856C61.4756 140.451 61.9183 140.147 62.4836 139.944C63.0596 139.741 63.7316 139.64 64.4996 139.64H66.5156V140.968H64.4676C63.9556 140.968 63.561 141.096 63.2836 141.352C63.017 141.597 62.8836 141.917 62.8836 142.312C62.8836 142.707 63.017 143.027 63.2836 143.272C63.561 143.517 63.9556 143.64 64.4676 143.64C64.777 143.64 65.0596 143.587 65.3156 143.48C65.5823 143.363 65.801 143.171 65.9716 142.904C66.153 142.627 66.2543 142.253 66.2756 141.784L66.8196 142.408C66.7663 143.016 66.617 143.528 66.3716 143.944C66.137 144.36 65.8063 144.68 65.3796 144.904C64.9636 145.117 64.4516 145.224 63.8436 145.224ZM63.6036 135.208L65.0276 131.928H67.3316L65.5076 135.208H63.6036ZM75.0619 145.304C74.2939 145.304 73.6165 145.181 73.0299 144.936C72.4432 144.691 71.9472 144.36 71.5419 143.944C71.1365 143.517 70.8272 143.037 70.6139 142.504C70.4112 141.971 70.3099 141.416 70.3099 140.84V140.504C70.3099 139.907 70.4165 139.341 70.6299 138.808C70.8539 138.264 71.1685 137.784 71.5739 137.368C71.9899 136.941 72.4912 136.611 73.0779 136.376C73.6645 136.131 74.3259 136.008 75.0619 136.008C75.7979 136.008 76.4592 136.131 77.0459 136.376C77.6325 136.611 78.1285 136.941 78.5339 137.368C78.9499 137.784 79.2645 138.264 79.4779 138.808C79.6912 139.341 79.7979 139.907 79.7979 140.504V140.84C79.7979 141.416 79.6912 141.971 79.4779 142.504C79.2752 143.037 78.9712 143.517 78.5659 143.944C78.1605 144.36 77.6645 144.691 77.0779 144.936C76.4912 145.181 75.8192 145.304 75.0619 145.304ZM75.0619 143.4C75.6059 143.4 76.0645 143.283 76.4379 143.048C76.8112 142.803 77.0939 142.477 77.2859 142.072C77.4779 141.656 77.5739 141.187 77.5739 140.664C77.5739 140.131 77.4725 139.661 77.2699 139.256C77.0779 138.84 76.7899 138.515 76.4059 138.28C76.0325 138.035 75.5845 137.912 75.0619 137.912C74.5392 137.912 74.0859 138.035 73.7019 138.28C73.3285 138.515 73.0405 138.84 72.8379 139.256C72.6352 139.661 72.5339 140.131 72.5339 140.664C72.5339 141.187 72.6299 141.656 72.8219 142.072C73.0245 142.477 73.3125 142.803 73.6859 143.048C74.0592 143.283 74.5179 143.4 75.0619 143.4ZM89.2544 145.304C88.497 145.304 87.841 145.176 87.2864 144.92C86.7424 144.664 86.2837 144.323 85.9104 143.896C85.5477 143.469 85.2757 142.989 85.0944 142.456C84.913 141.923 84.8224 141.379 84.8224 140.824V140.52C84.8224 139.933 84.913 139.373 85.0944 138.84C85.2864 138.296 85.569 137.816 85.9424 137.4C86.3157 136.973 86.7744 136.637 87.3184 136.392C87.873 136.136 88.513 136.008 89.2384 136.008C89.9957 136.008 90.673 136.157 91.2704 136.456C91.8677 136.744 92.3424 137.149 92.6944 137.672C93.057 138.195 93.2597 138.803 93.3024 139.496H91.1424C91.089 139.048 90.897 138.675 90.5664 138.376C90.2464 138.077 89.8037 137.928 89.2384 137.928C88.7477 137.928 88.337 138.045 88.0064 138.28C87.6864 138.515 87.4464 138.84 87.2864 139.256C87.1264 139.661 87.0464 140.131 87.0464 140.664C87.0464 141.176 87.121 141.64 87.2704 142.056C87.4304 142.472 87.6704 142.797 87.9904 143.032C88.321 143.267 88.7424 143.384 89.2544 143.384C89.6384 143.384 89.969 143.315 90.2464 143.176C90.5237 143.037 90.7424 142.845 90.9024 142.6C91.073 142.355 91.1797 142.077 91.2224 141.768H93.3824C93.3397 142.472 93.1317 143.091 92.7584 143.624C92.3957 144.147 91.9104 144.557 91.3024 144.856C90.705 145.155 90.0224 145.304 89.2544 145.304ZM100.528 145V142.424H100.16V139.56C100.16 139.059 100.037 138.685 99.792 138.44C99.5467 138.195 99.168 138.072 98.656 138.072C98.3893 138.072 98.0693 138.077 97.696 138.088C97.3227 138.099 96.944 138.115 96.56 138.136C96.1867 138.147 95.8507 138.163 95.552 138.184V136.296C95.7973 136.275 96.0747 136.253 96.384 136.232C96.6933 136.211 97.008 136.2 97.328 136.2C97.6587 136.189 97.968 136.184 98.256 136.184C99.152 136.184 99.8933 136.301 100.48 136.536C101.077 136.771 101.525 137.139 101.824 137.64C102.133 138.141 102.288 138.797 102.288 139.608V145H100.528ZM97.728 145.224C97.0987 145.224 96.544 145.112 96.064 144.888C95.5947 144.664 95.2267 144.344 94.96 143.928C94.704 143.512 94.576 143.011 94.576 142.424C94.576 141.784 94.7307 141.261 95.04 140.856C95.36 140.451 95.8027 140.147 96.368 139.944C96.944 139.741 97.616 139.64 98.384 139.64H100.4V140.968H98.352C97.84 140.968 97.4453 141.096 97.168 141.352C96.9013 141.597 96.768 141.917 96.768 142.312C96.768 142.707 96.9013 143.027 97.168 143.272C97.4453 143.517 97.84 143.64 98.352 143.64C98.6613 143.64 98.944 143.587 99.2 143.48C99.4667 143.363 99.6853 143.171 99.856 142.904C100.037 142.627 100.139 142.253 100.16 141.784L100.704 142.408C100.651 143.016 100.501 143.528 100.256 143.944C100.021 144.36 99.6907 144.68 99.264 144.904C98.848 145.117 98.336 145.224 97.728 145.224ZM97.488 135.208L98.912 131.928H101.216L99.392 135.208H97.488ZM108.946 145.304C108.178 145.304 107.501 145.181 106.914 144.936C106.328 144.691 105.832 144.36 105.426 143.944C105.021 143.517 104.712 143.037 104.498 142.504C104.296 141.971 104.194 141.416 104.194 140.84V140.504C104.194 139.907 104.301 139.341 104.514 138.808C104.738 138.264 105.053 137.784 105.458 137.368C105.874 136.941 106.376 136.611 106.962 136.376C107.549 136.131 108.21 136.008 108.946 136.008C109.682 136.008 110.344 136.131 110.93 136.376C111.517 136.611 112.013 136.941 112.418 137.368C112.834 137.784 113.149 138.264 113.362 138.808C113.576 139.341 113.682 139.907 113.682 140.504V140.84C113.682 141.416 113.576 141.971 113.362 142.504C113.16 143.037 112.856 143.517 112.45 143.944C112.045 144.36 111.549 144.691 110.962 144.936C110.376 145.181 109.704 145.304 108.946 145.304ZM108.946 143.4C109.49 143.4 109.949 143.283 110.322 143.048C110.696 142.803 110.978 142.477 111.17 142.072C111.362 141.656 111.458 141.187 111.458 140.664C111.458 140.131 111.357 139.661 111.154 139.256C110.962 138.84 110.674 138.515 110.29 138.28C109.917 138.035 109.469 137.912 108.946 137.912C108.424 137.912 107.97 138.035 107.586 138.28C107.213 138.515 106.925 138.84 106.722 139.256C106.52 139.661 106.418 140.131 106.418 140.664C106.418 141.187 106.514 141.656 106.706 142.072C106.909 142.477 107.197 142.803 107.57 143.048C107.944 143.283 108.402 143.4 108.946 143.4Z" fill="#0EA5E9"/>
<defs>
<filter id="filter0_d_20_49" x="16" y="20" width="132" height="40" filterUnits="userSpaceOnUse" color-interpolation-filters="sRGB">
<feFlood flood-opacity="0" result="BackgroundImageFix"/>
<feColorMatrix in="SourceAlpha" type="matrix" values="0 0 0 0 0 0 0 0 0 0 0 0 0 0 0 0 0 0 127 0" result="hardAlpha"/>
<feOffset dy="4"/>
<feGaussianBlur stdDeviation="2"/>
<feComposite in2="hardAlpha" operator="out"/>
<feColorMatrix type="matrix" values="0 0 0 0 0 0 0 0 0 0 0 0 0 0 0 0 0 0 0.25 0"/>
<feBlend mode="normal" in2="BackgroundImageFix" result="effect1_dropShadow_20_49"/>
<feBlend mode="normal" in="SourceGraphic" in2="effect1_dropShadow_20_49" result="shape"/>
</filter>
<filter id="filter1_d_20_49" x="16" y="72" width="132" height="40" filterUnits="userSpaceOnUse" color-interpolation-filters="sRGB">
<feFlood flood-opacity="0" result="BackgroundImageFix"/>
<feColorMatrix in="SourceAlpha" type="matrix" values="0 0 0 0 0 0 0 0 0 0 0 0 0 0 0 0 0 0 127 0" result="hardAlpha"/>
<feOffset dy="4"/>
<feGaussianBlur stdDeviation="2"/>
<feComposite in2="hardAlpha" operator="out"/>
<feColorMatrix type="matrix" values="0 0 0 0 0 0 0 0 0 0 0 0 0 0 0 0 0 0 0.25 0"/>
<feBlend mode="normal" in2="BackgroundImageFix" result="effect1_dropShadow_20_49"/>
<feBlend mode="normal" in="SourceGraphic" in2="effect1_dropShadow_20_49" result="shape"/>
</filter>
<filter id="filter2_d_20_49" x="16" y="124" width="132" height="40" filterUnits="userSpaceOnUse" color-interpolation-filters="sRGB">
<feFlood flood-opacity="0" result="BackgroundImageFix"/>
<feColorMatrix in="SourceAlpha" type="matrix" values="0 0 0 0 0 0 0 0 0 0 0 0 0 0 0 0 0 0 127 0" result="hardAlpha"/>
<feOffset dy="4"/>
<feGaussianBlur stdDeviation="2"/>
<feComposite in2="hardAlpha" operator="out"/>
<feColorMatrix type="matrix" values="0 0 0 0 0 0 0 0 0 0 0 0 0 0 0 0 0 0 0.25 0"/>
<feBlend mode="normal" in2="BackgroundImageFix" result="effect1_dropShadow_20_49"/>
<feBlend mode="normal" in="SourceGraphic" in2="effect1_dropShadow_20_49" result="shape"/>
</filter>
</defs>
</svg>
