<svg width="269" height="216" viewBox="0 0 269 216" fill="none" xmlns="http://www.w3.org/2000/svg">
<rect x="0.5" y="0.5" width="268" height="215" rx="4.5" stroke="#8A38F5" stroke-dasharray="10 5"/>
<rect x="21" y="21" width="226" height="38" rx="19" fill="#E5E7EB"/>
<rect x="21" y="21" width="226" height="38" rx="19" stroke="#10B981" stroke-width="2"/>
<path d="M41 55C49.2843 55 56 48.2843 56 40C56 31.7157 49.2843 25 41 25C32.7157 25 26 31.7157 26 40C26 48.2843 32.7157 55 41 55Z" fill="#10B981"/>
<path d="M48.2897 34.3093L48.2516 34.2707C48.0549 34.0739 47.8213 33.9178 47.5642 33.8113C47.3071 33.7048 47.0316 33.65 46.7534 33.65C46.4751 33.65 46.1996 33.7048 45.9425 33.8113C45.6854 33.9178 45.4519 34.0739 45.2551 34.2707L38.368 41.1583L36.7526 39.5429C36.5534 39.3437 36.3169 39.1856 36.0566 39.0778C35.7963 38.97 35.5173 38.9145 35.2356 38.9145C34.9538 38.9145 34.6749 38.97 34.4146 39.0778C34.1543 39.1856 33.9178 39.3437 33.7186 39.5429C33.5193 39.7421 33.3611 39.9787 33.2533 40.239C33.1454 40.4993 33.0898 40.7784 33.0898 41.0602C33.0898 41.342 33.1454 41.6211 33.2533 41.8814C33.3611 42.1417 33.5193 42.3783 33.7186 42.5775L36.8317 45.6906L36.8698 45.7292C37.0665 45.926 37.3 46.0821 37.557 46.1885C37.814 46.295 38.0895 46.3498 38.3677 46.3498C38.6459 46.3498 38.9214 46.295 39.1784 46.1885C39.4354 46.0821 39.669 45.926 39.8657 45.7292L39.885 45.7099L48.2897 37.3046C48.6869 36.9074 48.91 36.3687 48.91 35.807C48.91 35.2453 48.6869 34.7065 48.2897 34.3093Z" fill="white"/>
<path d="M98.3033 48.312C97.9086 48.312 97.5086 48.2907 97.1033 48.248C96.7086 48.216 96.33 48.1733 95.9673 48.12V47.096C96.3513 47.1493 96.7513 47.192 97.1673 47.224C97.594 47.2667 97.994 47.288 98.3673 47.288C99.178 47.288 99.8233 47.1813 100.303 46.968C100.783 46.7547 101.125 46.4133 101.327 45.944C101.541 45.4853 101.647 44.8773 101.647 44.12V42.424L102.095 41.24C102.074 42.0507 101.903 42.7493 101.583 43.336C101.263 43.912 100.831 44.3547 100.287 44.664C99.7433 44.9733 99.1246 45.128 98.4313 45.128C97.8233 45.128 97.2686 45.0107 96.7673 44.776C96.2766 44.5413 95.8553 44.2213 95.5033 43.816C95.1513 43.4 94.8793 42.9307 94.6873 42.408C94.4953 41.8853 94.3993 41.336 94.3993 40.76V40.536C94.3993 39.9707 94.4953 39.432 94.6873 38.92C94.8793 38.3973 95.1513 37.9387 95.5033 37.544C95.8553 37.1387 96.282 36.824 96.7833 36.6C97.2953 36.3653 97.8606 36.248 98.4793 36.248C99.226 36.248 99.8766 36.4133 100.431 36.744C100.986 37.0747 101.418 37.5333 101.727 38.12C102.047 38.7067 102.218 39.3947 102.239 40.184L101.855 39.976V36.536H102.799V44.072C102.799 45.0853 102.65 45.9013 102.351 46.52C102.053 47.1387 101.573 47.592 100.911 47.88C100.261 48.168 99.3913 48.312 98.3033 48.312ZM98.6393 44.024C99.2153 44.024 99.7273 43.9013 100.175 43.656C100.634 43.4 100.997 43.0427 101.263 42.584C101.53 42.1253 101.663 41.592 101.663 40.984V40.2C101.663 39.6133 101.525 39.1013 101.247 38.664C100.981 38.2267 100.623 37.8853 100.175 37.64C99.7273 37.3947 99.2153 37.272 98.6393 37.272C98.0206 37.272 97.482 37.4213 97.0233 37.72C96.5646 38.0187 96.2126 38.424 95.9673 38.936C95.722 39.4373 95.5993 40.008 95.5993 40.648C95.5993 41.2987 95.722 41.88 95.9673 42.392C96.2233 42.904 96.5806 43.304 97.0393 43.592C97.498 43.88 98.0313 44.024 98.6393 44.024ZM109.598 45.272C108.872 45.272 108.232 45.1493 107.678 44.904C107.134 44.648 106.67 44.312 106.286 43.896C105.912 43.4693 105.624 42.9947 105.422 42.472C105.23 41.9493 105.134 41.416 105.134 40.872V40.648C105.134 40.104 105.235 39.5707 105.438 39.048C105.64 38.5147 105.934 38.04 106.318 37.624C106.702 37.208 107.166 36.8773 107.71 36.632C108.264 36.376 108.894 36.248 109.598 36.248C110.312 36.248 110.942 36.376 111.486 36.632C112.04 36.8773 112.51 37.208 112.894 37.624C113.278 38.04 113.566 38.5147 113.758 39.048C113.96 39.5707 114.062 40.104 114.062 40.648V40.872C114.062 41.416 113.966 41.9493 113.774 42.472C113.582 42.9947 113.294 43.4693 112.91 43.896C112.536 44.312 112.072 44.648 111.518 44.904C110.963 45.1493 110.323 45.272 109.598 45.272ZM109.598 44.2C110.302 44.2 110.894 44.0453 111.374 43.736C111.864 43.416 112.238 43 112.494 42.488C112.75 41.9653 112.878 41.3893 112.878 40.76C112.878 40.12 112.744 39.544 112.478 39.032C112.222 38.5093 111.848 38.0987 111.358 37.8C110.867 37.4907 110.28 37.336 109.598 37.336C108.926 37.336 108.344 37.4907 107.854 37.8C107.363 38.0987 106.984 38.5093 106.718 39.032C106.462 39.544 106.334 40.12 106.334 40.76C106.334 41.3893 106.462 41.9653 106.718 42.488C106.974 43 107.342 43.416 107.822 43.736C108.312 44.0453 108.904 44.2 109.598 44.2ZM120.301 45.272C119.575 45.272 118.935 45.1493 118.381 44.904C117.837 44.648 117.373 44.312 116.989 43.896C116.615 43.4693 116.327 42.9947 116.125 42.472C115.933 41.9493 115.837 41.416 115.837 40.872V40.648C115.837 40.104 115.938 39.5707 116.141 39.048C116.343 38.5147 116.637 38.04 117.021 37.624C117.405 37.208 117.869 36.8773 118.413 36.632C118.967 36.376 119.597 36.248 120.301 36.248C121.015 36.248 121.645 36.376 122.189 36.632C122.743 36.8773 123.213 37.208 123.597 37.624C123.981 38.04 124.269 38.5147 124.461 39.048C124.663 39.5707 124.765 40.104 124.765 40.648V40.872C124.765 41.416 124.669 41.9493 124.477 42.472C124.285 42.9947 123.997 43.4693 123.613 43.896C123.239 44.312 122.775 44.648 122.221 44.904C121.666 45.1493 121.026 45.272 120.301 45.272ZM120.301 44.2C121.005 44.2 121.597 44.0453 122.077 43.736C122.567 43.416 122.941 43 123.197 42.488C123.453 41.9653 123.581 41.3893 123.581 40.76C123.581 40.12 123.447 39.544 123.181 39.032C122.925 38.5093 122.551 38.0987 122.061 37.8C121.57 37.4907 120.983 37.336 120.301 37.336C119.629 37.336 119.047 37.4907 118.557 37.8C118.066 38.0987 117.687 38.5093 117.421 39.032C117.165 39.544 117.037 40.12 117.037 40.76C117.037 41.3893 117.165 41.9653 117.421 42.488C117.677 43 118.045 43.416 118.525 43.736C119.015 44.0453 119.607 44.2 120.301 44.2ZM130.444 48.312C130.049 48.312 129.649 48.2907 129.244 48.248C128.849 48.216 128.471 48.1733 128.108 48.12V47.096C128.492 47.1493 128.892 47.192 129.308 47.224C129.735 47.2667 130.135 47.288 130.508 47.288C131.319 47.288 131.964 47.1813 132.444 46.968C132.924 46.7547 133.265 46.4133 133.468 45.944C133.681 45.4853 133.788 44.8773 133.788 44.12V42.424L134.236 41.24C134.215 42.0507 134.044 42.7493 133.724 43.336C133.404 43.912 132.972 44.3547 132.428 44.664C131.884 44.9733 131.265 45.128 130.572 45.128C129.964 45.128 129.409 45.0107 128.908 44.776C128.417 44.5413 127.996 44.2213 127.644 43.816C127.292 43.4 127.02 42.9307 126.828 42.408C126.636 41.8853 126.54 41.336 126.54 40.76V40.536C126.54 39.9707 126.636 39.432 126.828 38.92C127.02 38.3973 127.292 37.9387 127.644 37.544C127.996 37.1387 128.423 36.824 128.924 36.6C129.436 36.3653 130.001 36.248 130.62 36.248C131.367 36.248 132.017 36.4133 132.572 36.744C133.127 37.0747 133.559 37.5333 133.868 38.12C134.188 38.7067 134.359 39.3947 134.38 40.184L133.996 39.976V36.536H134.94V44.072C134.94 45.0853 134.791 45.9013 134.492 46.52C134.193 47.1387 133.713 47.592 133.052 47.88C132.401 48.168 131.532 48.312 130.444 48.312ZM130.78 44.024C131.356 44.024 131.868 43.9013 132.316 43.656C132.775 43.4 133.137 43.0427 133.404 42.584C133.671 42.1253 133.804 41.592 133.804 40.984V40.2C133.804 39.6133 133.665 39.1013 133.388 38.664C133.121 38.2267 132.764 37.8853 132.316 37.64C131.868 37.3947 131.356 37.272 130.78 37.272C130.161 37.272 129.623 37.4213 129.164 37.72C128.705 38.0187 128.353 38.424 128.108 38.936C127.863 39.4373 127.74 40.008 127.74 40.648C127.74 41.2987 127.863 41.88 128.108 42.392C128.364 42.904 128.721 43.304 129.18 43.592C129.639 43.88 130.172 44.024 130.78 44.024ZM138.026 45V33.32H139.226V45H138.026ZM136.794 34.296V33.32H139.226V34.296H136.794ZM145.873 45.272C145.148 45.272 144.518 45.1493 143.985 44.904C143.452 44.648 143.014 44.312 142.673 43.896C142.332 43.4693 142.076 42.9947 141.905 42.472C141.745 41.9493 141.665 41.4107 141.665 40.856V40.632C141.665 40.088 141.745 39.5547 141.905 39.032C142.076 38.5093 142.332 38.04 142.673 37.624C143.014 37.208 143.441 36.8773 143.953 36.632C144.476 36.376 145.084 36.248 145.777 36.248C146.662 36.248 147.398 36.4453 147.985 36.84C148.582 37.2347 149.03 37.7413 149.329 38.36C149.628 38.968 149.777 39.624 149.777 40.328V40.952H142.209V40.024H148.945L148.641 40.488C148.641 39.8587 148.529 39.3093 148.305 38.84C148.092 38.36 147.772 37.9867 147.345 37.72C146.929 37.4427 146.406 37.304 145.777 37.304C145.116 37.304 144.566 37.4587 144.129 37.768C143.692 38.0773 143.361 38.488 143.137 39C142.924 39.512 142.817 40.0933 142.817 40.744C142.817 41.384 142.924 41.9707 143.137 42.504C143.361 43.0267 143.697 43.4427 144.145 43.752C144.604 44.0613 145.18 44.216 145.873 44.216C146.609 44.216 147.206 44.0507 147.665 43.72C148.124 43.3787 148.406 42.9787 148.513 42.52H149.633C149.526 43.0853 149.302 43.576 148.961 43.992C148.62 44.3973 148.188 44.712 147.665 44.936C147.142 45.16 146.545 45.272 145.873 45.272ZM151.738 45V43.416H153.242V45H151.738ZM159.421 45.272C158.706 45.272 158.082 45.1493 157.549 44.904C157.026 44.648 156.589 44.3067 156.237 43.88C155.885 43.4427 155.618 42.9627 155.437 42.44C155.266 41.9173 155.181 41.3893 155.181 40.856V40.632C155.181 40.088 155.266 39.56 155.437 39.048C155.618 38.5253 155.885 38.056 156.237 37.64C156.589 37.2133 157.026 36.8773 157.549 36.632C158.082 36.376 158.695 36.248 159.389 36.248C160.093 36.248 160.717 36.376 161.261 36.632C161.815 36.888 162.263 37.2507 162.605 37.72C162.946 38.1893 163.149 38.744 163.213 39.384H162.061C161.965 38.7973 161.687 38.312 161.229 37.928C160.781 37.5333 160.167 37.336 159.389 37.336C158.717 37.336 158.157 37.4907 157.709 37.8C157.271 38.0987 156.941 38.5093 156.717 39.032C156.493 39.544 156.381 40.1147 156.381 40.744C156.381 41.3627 156.493 41.9387 156.717 42.472C156.941 42.9947 157.277 43.416 157.725 43.736C158.173 44.0453 158.738 44.2 159.421 44.2C159.943 44.2 160.397 44.1093 160.781 43.928C161.175 43.736 161.49 43.48 161.725 43.16C161.97 42.84 162.114 42.488 162.157 42.104H163.309C163.266 42.744 163.063 43.304 162.701 43.784C162.349 44.2533 161.89 44.6213 161.325 44.888C160.759 45.144 160.125 45.272 159.421 45.272ZM169.301 45.272C168.575 45.272 167.935 45.1493 167.381 44.904C166.837 44.648 166.373 44.312 165.989 43.896C165.615 43.4693 165.327 42.9947 165.125 42.472C164.933 41.9493 164.837 41.416 164.837 40.872V40.648C164.837 40.104 164.938 39.5707 165.141 39.048C165.343 38.5147 165.637 38.04 166.021 37.624C166.405 37.208 166.869 36.8773 167.413 36.632C167.967 36.376 168.597 36.248 169.301 36.248C170.015 36.248 170.645 36.376 171.189 36.632C171.743 36.8773 172.213 37.208 172.597 37.624C172.981 38.04 173.269 38.5147 173.461 39.048C173.663 39.5707 173.765 40.104 173.765 40.648V40.872C173.765 41.416 173.669 41.9493 173.477 42.472C173.285 42.9947 172.997 43.4693 172.613 43.896C172.239 44.312 171.775 44.648 171.221 44.904C170.666 45.1493 170.026 45.272 169.301 45.272ZM169.301 44.2C170.005 44.2 170.597 44.0453 171.077 43.736C171.567 43.416 171.941 43 172.197 42.488C172.453 41.9653 172.581 41.3893 172.581 40.76C172.581 40.12 172.447 39.544 172.181 39.032C171.925 38.5093 171.551 38.0987 171.061 37.8C170.57 37.4907 169.983 37.336 169.301 37.336C168.629 37.336 168.047 37.4907 167.557 37.8C167.066 38.0987 166.687 38.5093 166.421 39.032C166.165 39.544 166.037 40.12 166.037 40.76C166.037 41.3893 166.165 41.9653 166.421 42.488C166.677 43 167.045 43.416 167.525 43.736C168.015 44.0453 168.607 44.2 169.301 44.2ZM176.212 45V36.52H177.172V40.088H176.98C176.98 39.3093 177.087 38.6373 177.3 38.072C177.524 37.5067 177.855 37.0693 178.292 36.76C178.729 36.44 179.284 36.28 179.956 36.28H180.004C180.676 36.28 181.231 36.4347 181.668 36.744C182.105 37.0533 182.431 37.4907 182.644 38.056C182.857 38.6213 182.964 39.2987 182.964 40.088H182.58C182.58 39.3093 182.687 38.6373 182.9 38.072C183.124 37.5067 183.455 37.0693 183.892 36.76C184.34 36.44 184.9 36.28 185.572 36.28H185.62C186.292 36.28 186.847 36.4347 187.284 36.744C187.732 37.0533 188.063 37.4907 188.276 38.056C188.5 38.6213 188.612 39.2987 188.612 40.088V45H187.412V39.816C187.412 39.0693 187.231 38.4773 186.868 38.04C186.505 37.6027 185.983 37.384 185.3 37.384C184.596 37.384 184.036 37.6133 183.62 38.072C183.215 38.52 183.012 39.128 183.012 39.896V45H181.812V39.816C181.812 39.0693 181.631 38.4773 181.268 38.04C180.905 37.6027 180.383 37.384 179.7 37.384C178.996 37.384 178.436 37.6133 178.02 38.072C177.615 38.52 177.412 39.128 177.412 39.896V45H176.212Z" fill="#10B981"/>
<path d="M230.785 35.5005C232.166 35.5005 233.285 34.3815 233.285 33.001C233.285 31.6206 232.166 30.5016 230.785 30.5016C229.404 30.5016 228.285 31.6206 228.285 33.001C228.285 34.3815 229.404 35.5005 230.785 35.5005Z" fill="#10B981"/>
<path d="M230.785 42.4994C232.166 42.4994 233.285 41.3804 233.285 39.9999C233.285 38.6195 232.166 37.5005 230.785 37.5005C229.404 37.5005 228.285 38.6195 228.285 39.9999C228.285 41.3804 229.404 42.4994 230.785 42.4994Z" fill="#10B981"/>
<path d="M230.785 49.4983C232.166 49.4983 233.285 48.3793 233.285 46.9988C233.285 45.6184 232.166 44.4994 230.785 44.4994C229.404 44.4994 228.285 45.6184 228.285 46.9988C228.285 48.3793 229.404 49.4983 230.785 49.4983Z" fill="#10B981"/>
<rect x="22" y="89" width="226" height="38" rx="19" fill="#E5E7EB"/>
<rect x="22" y="89" width="226" height="38" rx="19" stroke="#F59E0B" stroke-width="2"/>
<path d="M42 123C50.2843 123 57 116.284 57 108C57 99.7157 50.2843 93 42 93C33.7157 93 27 99.7157 27 108C27 116.284 33.7157 123 42 123Z" fill="#F59E0B"/>
<path d="M42.0779 100.09C40.8651 100.072 39.6936 100.53 38.8146 101.366C37.9357 102.202 37.4191 103.349 37.3757 104.561V104.603C37.3729 104.731 37.3956 104.857 37.4424 104.976C37.4893 105.094 37.5593 105.202 37.6485 105.293C37.7376 105.384 37.8441 105.456 37.9615 105.506C38.079 105.555 38.2052 105.58 38.3326 105.58H38.7861C39.0419 105.58 39.2876 105.481 39.4717 105.303C39.6559 105.126 39.764 104.884 39.7734 104.628C39.7734 104.619 39.7734 104.611 39.7734 104.603C39.7957 104.168 39.945 103.749 40.2027 103.398C40.4605 103.047 40.8155 102.779 41.2238 102.627C41.6322 102.475 42.076 102.447 42.5005 102.544C42.9249 102.642 43.3115 102.862 43.6123 103.177C43.9131 103.492 44.1151 103.888 44.1932 104.317C44.2714 104.746 44.2223 105.188 44.0521 105.588C43.8818 105.989 43.5978 106.332 43.2352 106.573C42.8726 106.814 42.4472 106.944 42.0117 106.946H41.99C41.9163 106.946 41.8432 106.96 41.7749 106.987C41.7067 107.015 41.6445 107.056 41.5921 107.108C41.5397 107.16 41.4981 107.221 41.4696 107.289C41.4412 107.357 41.4265 107.43 41.4263 107.504V108.067C41.426 108.069 41.426 108.071 41.4263 108.073V111.681C41.4271 111.979 41.5459 112.265 41.7568 112.475C41.9676 112.686 42.2533 112.804 42.5513 112.805C42.6992 112.805 42.8457 112.776 42.9824 112.719C43.119 112.663 43.2432 112.58 43.3478 112.475C43.4524 112.37 43.5353 112.246 43.5919 112.11C43.6485 111.973 43.6776 111.826 43.6775 111.679V109.028C44.6749 108.638 45.5061 107.914 46.0293 106.979C46.5525 106.044 46.7353 104.957 46.5466 103.902C46.3579 102.848 45.8094 101.892 44.9945 101.197C44.1796 100.501 43.1488 100.11 42.0779 100.09Z" fill="white"/>
<path d="M43.4244 115.546C43.9088 115.061 43.9088 114.276 43.4244 113.792C42.9401 113.307 42.1548 113.307 41.6704 113.792C41.1861 114.276 41.1861 115.061 41.6704 115.546C42.1548 116.03 42.9401 116.03 43.4244 115.546Z" fill="white"/>
<path d="M90.6396 116.296V115.224H91.7276C92.1009 115.224 92.4209 115.176 92.6876 115.08C92.9543 114.995 93.1783 114.84 93.3596 114.616C93.5409 114.392 93.6956 114.083 93.8236 113.688L96.6716 104.536H97.8396L94.8636 114.024C94.6929 114.568 94.4583 115.005 94.1596 115.336C93.8609 115.677 93.5036 115.923 93.0876 116.072C92.6716 116.221 92.1969 116.296 91.6636 116.296H90.6396ZM93.3916 112.792V111.784H94.9116V112.792H93.3916ZM93.2476 112.792L90.1756 104.536H91.4076L94.3676 112.792H93.2476ZM103.59 113.272C102.865 113.272 102.225 113.149 101.67 112.904C101.126 112.648 100.662 112.312 100.278 111.896C99.9045 111.469 99.6165 110.995 99.4138 110.472C99.2218 109.949 99.1258 109.416 99.1258 108.872V108.648C99.1258 108.104 99.2272 107.571 99.4298 107.048C99.6325 106.515 99.9258 106.04 100.31 105.624C100.694 105.208 101.158 104.877 101.702 104.632C102.257 104.376 102.886 104.248 103.59 104.248C104.305 104.248 104.934 104.376 105.478 104.632C106.033 104.877 106.502 105.208 106.886 105.624C107.27 106.04 107.558 106.515 107.75 107.048C107.953 107.571 108.054 108.104 108.054 108.648V108.872C108.054 109.416 107.958 109.949 107.766 110.472C107.574 110.995 107.286 111.469 106.902 111.896C106.529 112.312 106.065 112.648 105.51 112.904C104.955 113.149 104.315 113.272 103.59 113.272ZM103.59 112.2C104.294 112.2 104.886 112.045 105.366 111.736C105.857 111.416 106.23 111 106.486 110.488C106.742 109.965 106.87 109.389 106.87 108.76C106.87 108.12 106.737 107.544 106.47 107.032C106.214 106.509 105.841 106.099 105.35 105.8C104.859 105.491 104.273 105.336 103.59 105.336C102.918 105.336 102.337 105.491 101.846 105.8C101.355 106.099 100.977 106.509 100.71 107.032C100.454 107.544 100.326 108.12 100.326 108.76C100.326 109.389 100.454 109.965 100.71 110.488C100.966 111 101.334 111.416 101.814 111.736C102.305 112.045 102.897 112.2 103.59 112.2ZM113.429 113.24C112.416 113.24 111.642 112.915 111.109 112.264C110.576 111.603 110.309 110.685 110.309 109.512V104.52H111.493V109.752C111.493 110.488 111.685 111.075 112.069 111.512C112.464 111.939 113.008 112.152 113.701 112.152C114.426 112.152 115.002 111.923 115.429 111.464C115.866 111.005 116.085 110.392 116.085 109.624V104.52H117.285V113H116.325V109.464H116.517C116.517 110.253 116.405 110.931 116.181 111.496C115.957 112.051 115.621 112.483 115.173 112.792C114.725 113.091 114.16 113.24 113.477 113.24H113.429ZM123.495 113.096C122.908 113.096 122.402 113.011 121.975 112.84C121.548 112.669 121.218 112.381 120.983 111.976C120.748 111.56 120.631 111.005 120.631 110.312V101.864H121.783V110.488C121.783 110.979 121.916 111.357 122.183 111.624C122.45 111.88 122.828 112.008 123.319 112.008H124.839V113.096H123.495ZM119.111 105.448V104.536H124.839V105.448H119.111ZM130.085 113.24C129.072 113.24 128.299 112.915 127.765 112.264C127.232 111.603 126.965 110.685 126.965 109.512V104.52H128.149V109.752C128.149 110.488 128.341 111.075 128.725 111.512C129.12 111.939 129.664 112.152 130.357 112.152C131.083 112.152 131.659 111.923 132.085 111.464C132.523 111.005 132.741 110.392 132.741 109.624V104.52H133.941V113H132.981V109.464H133.173C133.173 110.253 133.061 110.931 132.837 111.496C132.613 112.051 132.277 112.483 131.829 112.792C131.381 113.091 130.816 113.24 130.133 113.24H130.085ZM141.447 113.272C140.7 113.272 140.044 113.107 139.479 112.776C138.924 112.445 138.487 111.981 138.167 111.384C137.858 110.787 137.692 110.099 137.671 109.32H138.039V113H137.079V101.32H138.279V107.16L137.815 108.232C137.836 107.379 138.007 106.659 138.327 106.072C138.658 105.475 139.095 105.021 139.639 104.712C140.194 104.403 140.823 104.248 141.527 104.248C142.146 104.248 142.706 104.365 143.207 104.6C143.708 104.835 144.135 105.155 144.487 105.56C144.85 105.965 145.122 106.435 145.303 106.968C145.495 107.491 145.591 108.045 145.591 108.632V108.856C145.591 109.432 145.495 109.987 145.303 110.52C145.111 111.043 144.834 111.512 144.471 111.928C144.119 112.344 143.687 112.675 143.175 112.92C142.663 113.155 142.087 113.272 141.447 113.272ZM141.319 112.216C141.959 112.216 142.508 112.061 142.967 111.752C143.426 111.443 143.778 111.027 144.023 110.504C144.268 109.981 144.391 109.395 144.391 108.744C144.391 108.083 144.263 107.496 144.007 106.984C143.762 106.461 143.404 106.051 142.935 105.752C142.476 105.453 141.938 105.304 141.319 105.304C140.743 105.304 140.22 105.432 139.751 105.688C139.282 105.944 138.908 106.307 138.631 106.776C138.364 107.235 138.231 107.779 138.231 108.408V109.192C138.231 109.789 138.364 110.317 138.631 110.776C138.908 111.224 139.282 111.576 139.751 111.832C140.22 112.088 140.743 112.216 141.319 112.216ZM151.553 113.272C150.827 113.272 150.198 113.149 149.665 112.904C149.131 112.648 148.694 112.312 148.353 111.896C148.011 111.469 147.755 110.995 147.585 110.472C147.425 109.949 147.345 109.411 147.345 108.856V108.632C147.345 108.088 147.425 107.555 147.585 107.032C147.755 106.509 148.011 106.04 148.353 105.624C148.694 105.208 149.121 104.877 149.633 104.632C150.155 104.376 150.763 104.248 151.457 104.248C152.342 104.248 153.078 104.445 153.665 104.84C154.262 105.235 154.71 105.741 155.009 106.36C155.307 106.968 155.457 107.624 155.457 108.328V108.952H147.889V108.024H154.625L154.321 108.488C154.321 107.859 154.209 107.309 153.985 106.84C153.771 106.36 153.451 105.987 153.025 105.72C152.609 105.443 152.086 105.304 151.457 105.304C150.795 105.304 150.246 105.459 149.809 105.768C149.371 106.077 149.041 106.488 148.817 107C148.603 107.512 148.497 108.093 148.497 108.744C148.497 109.384 148.603 109.971 148.817 110.504C149.041 111.027 149.377 111.443 149.825 111.752C150.283 112.061 150.859 112.216 151.553 112.216C152.289 112.216 152.886 112.051 153.345 111.72C153.803 111.379 154.086 110.979 154.193 110.52H155.313C155.206 111.085 154.982 111.576 154.641 111.992C154.299 112.397 153.867 112.712 153.345 112.936C152.822 113.16 152.225 113.272 151.553 113.272ZM157.417 113V111.416H158.921V113H157.417ZM165.1 113.272C164.386 113.272 163.762 113.149 163.228 112.904C162.706 112.648 162.268 112.307 161.916 111.88C161.564 111.443 161.298 110.963 161.116 110.44C160.946 109.917 160.86 109.389 160.86 108.856V108.632C160.86 108.088 160.946 107.56 161.116 107.048C161.298 106.525 161.564 106.056 161.916 105.64C162.268 105.213 162.706 104.877 163.228 104.632C163.762 104.376 164.375 104.248 165.068 104.248C165.772 104.248 166.396 104.376 166.94 104.632C167.495 104.888 167.943 105.251 168.284 105.72C168.626 106.189 168.828 106.744 168.892 107.384H167.74C167.644 106.797 167.367 106.312 166.908 105.928C166.46 105.533 165.847 105.336 165.068 105.336C164.396 105.336 163.836 105.491 163.388 105.8C162.951 106.099 162.62 106.509 162.396 107.032C162.172 107.544 162.06 108.115 162.06 108.744C162.06 109.363 162.172 109.939 162.396 110.472C162.62 110.995 162.956 111.416 163.404 111.736C163.852 112.045 164.418 112.2 165.1 112.2C165.623 112.2 166.076 112.109 166.46 111.928C166.855 111.736 167.17 111.48 167.404 111.16C167.65 110.84 167.794 110.488 167.836 110.104H168.988C168.946 110.744 168.743 111.304 168.38 111.784C168.028 112.253 167.57 112.621 167.004 112.888C166.439 113.144 165.804 113.272 165.1 113.272ZM174.98 113.272C174.255 113.272 173.615 113.149 173.06 112.904C172.516 112.648 172.052 112.312 171.668 111.896C171.295 111.469 171.007 110.995 170.804 110.472C170.612 109.949 170.516 109.416 170.516 108.872V108.648C170.516 108.104 170.618 107.571 170.82 107.048C171.023 106.515 171.316 106.04 171.7 105.624C172.084 105.208 172.548 104.877 173.092 104.632C173.647 104.376 174.276 104.248 174.98 104.248C175.695 104.248 176.324 104.376 176.868 104.632C177.423 104.877 177.892 105.208 178.276 105.624C178.66 106.04 178.948 106.515 179.14 107.048C179.343 107.571 179.444 108.104 179.444 108.648V108.872C179.444 109.416 179.348 109.949 179.156 110.472C178.964 110.995 178.676 111.469 178.292 111.896C177.919 112.312 177.455 112.648 176.9 112.904C176.346 113.149 175.706 113.272 174.98 113.272ZM174.98 112.2C175.684 112.2 176.276 112.045 176.756 111.736C177.247 111.416 177.62 111 177.876 110.488C178.132 109.965 178.26 109.389 178.26 108.76C178.26 108.12 178.127 107.544 177.86 107.032C177.604 106.509 177.231 106.099 176.74 105.8C176.25 105.491 175.663 105.336 174.98 105.336C174.308 105.336 173.727 105.491 173.236 105.8C172.746 106.099 172.367 106.509 172.1 107.032C171.844 107.544 171.716 108.12 171.716 108.76C171.716 109.389 171.844 109.965 172.1 110.488C172.356 111 172.724 111.416 173.204 111.736C173.695 112.045 174.287 112.2 174.98 112.2ZM181.892 113V104.52H182.852V108.088H182.66C182.66 107.309 182.766 106.637 182.98 106.072C183.204 105.507 183.534 105.069 183.972 104.76C184.409 104.44 184.964 104.28 185.636 104.28H185.684C186.356 104.28 186.91 104.435 187.348 104.744C187.785 105.053 188.11 105.491 188.324 106.056C188.537 106.621 188.644 107.299 188.644 108.088H188.26C188.26 107.309 188.366 106.637 188.58 106.072C188.804 105.507 189.134 105.069 189.572 104.76C190.02 104.44 190.58 104.28 191.252 104.28H191.3C191.972 104.28 192.526 104.435 192.964 104.744C193.412 105.053 193.742 105.491 193.956 106.056C194.18 106.621 194.292 107.299 194.292 108.088V113H193.092V107.816C193.092 107.069 192.91 106.477 192.548 106.04C192.185 105.603 191.662 105.384 190.98 105.384C190.276 105.384 189.716 105.613 189.3 106.072C188.894 106.52 188.692 107.128 188.692 107.896V113H187.492V107.816C187.492 107.069 187.31 106.477 186.948 106.04C186.585 105.603 186.062 105.384 185.38 105.384C184.676 105.384 184.116 105.613 183.7 106.072C183.294 106.52 183.092 107.128 183.092 107.896V113H181.892Z" fill="#F59E0B"/>
<path d="M231.785 103.501C233.166 103.501 234.285 102.381 234.285 101.001C234.285 99.6206 233.166 98.5016 231.785 98.5016C230.404 98.5016 229.285 99.6206 229.285 101.001C229.285 102.381 230.404 103.501 231.785 103.501Z" fill="#F59E0B"/>
<path d="M231.785 110.499C233.166 110.499 234.285 109.38 234.285 108C234.285 106.62 233.166 105.5 231.785 105.5C230.404 105.5 229.285 106.62 229.285 108C229.285 109.38 230.404 110.499 231.785 110.499Z" fill="#F59E0B"/>
<path d="M231.785 117.498C233.166 117.498 234.285 116.379 234.285 114.999C234.285 113.618 233.166 112.499 231.785 112.499C230.404 112.499 229.285 113.618 229.285 114.999C229.285 116.379 230.404 117.498 231.785 117.498Z" fill="#F59E0B"/>
<rect x="22" y="157" width="226" height="38" rx="19" fill="#E5E7EB"/>
<rect x="22" y="157" width="226" height="38" rx="19" stroke="#EF4444" stroke-width="2"/>
<path d="M42 191C50.2843 191 57 184.284 57 176C57 167.716 50.2843 161 42 161C33.7157 161 27 167.716 27 176C27 184.284 33.7157 191 42 191Z" fill="#EF4444"/>
<path d="M47.4257 183.91C47.0991 183.911 46.7756 183.847 46.4739 183.722C46.1722 183.597 45.8982 183.414 45.6679 183.182L41.9999 179.516L38.332 183.184C37.8658 183.65 37.2335 183.912 36.5742 183.912C35.9148 183.912 35.2825 183.65 34.8163 183.184C34.3501 182.718 34.0882 182.086 34.0882 181.426C34.0882 180.767 34.3501 180.135 34.8163 179.668L38.4843 176L34.8158 172.332C34.3496 171.866 34.0876 171.233 34.0876 170.574C34.0876 169.915 34.3496 169.283 34.8158 168.816C35.282 168.35 35.9143 168.088 36.5736 168.088C37.2329 168.088 37.8652 168.35 38.3314 168.816L41.9999 172.484L45.6679 168.816C45.8987 168.585 46.1728 168.402 46.4744 168.277C46.776 168.152 47.0993 168.088 47.4257 168.088C47.7522 168.088 48.0754 168.152 48.377 168.277C48.6786 168.402 48.9527 168.585 49.1835 168.816C49.4144 169.047 49.5975 169.321 49.7224 169.622C49.8473 169.924 49.9116 170.247 49.9116 170.574C49.9116 170.9 49.8473 171.223 49.7224 171.525C49.5975 171.826 49.4144 172.101 49.1835 172.331L45.5156 176L49.1841 179.668C49.5317 180.015 49.7684 180.458 49.8643 180.94C49.9602 181.423 49.9109 181.922 49.7228 182.376C49.5346 182.83 49.216 183.219 48.8072 183.492C48.3984 183.765 47.9179 183.91 47.4263 183.91H47.4257Z" fill="white"/>
<path d="M81.363 181V172.536H82.547V181H81.363ZM80.003 173.496V172.536H82.547V173.496H80.003ZM81.619 170.968C81.331 170.968 81.1124 170.893 80.963 170.744C80.8244 170.584 80.755 170.387 80.755 170.152C80.755 169.917 80.8244 169.725 80.963 169.576C81.1124 169.416 81.331 169.336 81.619 169.336C81.907 169.336 82.1204 169.416 82.259 169.576C82.3977 169.725 82.467 169.917 82.467 170.152C82.467 170.387 82.3977 170.584 82.259 170.744C82.1204 170.893 81.907 170.968 81.619 170.968ZM85.6963 181V172.536H86.6563V176.088H86.4643C86.4643 175.299 86.5816 174.621 86.8163 174.056C87.051 173.491 87.403 173.053 87.8723 172.744C88.3416 172.435 88.9336 172.28 89.6483 172.28H89.6963C90.763 172.28 91.5576 172.616 92.0803 173.288C92.603 173.949 92.8643 174.883 92.8643 176.088V181H91.6803V175.832C91.6803 175.096 91.4776 174.504 91.0723 174.056C90.667 173.608 90.1016 173.384 89.3763 173.384C88.6296 173.384 88.027 173.619 87.5683 174.088C87.1203 174.547 86.8963 175.155 86.8963 175.912V181H85.6963ZM98.5245 181.24C97.4365 181.24 96.5992 181.005 96.0125 180.536C95.4259 180.056 95.1272 179.416 95.1165 178.616H96.2365C96.2579 179.021 96.4392 179.389 96.7805 179.72C97.1325 180.051 97.7139 180.216 98.5245 180.216C99.2819 180.216 99.8472 180.061 100.221 179.752C100.605 179.432 100.797 179.048 100.797 178.6C100.797 178.184 100.637 177.864 100.317 177.64C100.007 177.405 99.5539 177.256 98.9565 177.192L97.9965 177.096C97.2285 177.011 96.6045 176.776 96.1245 176.392C95.6552 175.997 95.4205 175.459 95.4205 174.776C95.4205 174.275 95.5485 173.837 95.8045 173.464C96.0605 173.091 96.4179 172.803 96.8765 172.6C97.3459 172.387 97.8952 172.28 98.5245 172.28C99.4312 172.28 100.167 172.493 100.733 172.92C101.309 173.347 101.602 173.955 101.613 174.744H100.493C100.482 174.339 100.311 173.997 99.9805 173.72C99.6499 173.443 99.1645 173.304 98.5245 173.304C97.8632 173.304 97.3672 173.448 97.0365 173.736C96.7165 174.024 96.5565 174.376 96.5565 174.792C96.5565 175.144 96.6792 175.437 96.9245 175.672C97.1699 175.896 97.5539 176.035 98.0765 176.088L99.0365 176.184C99.8899 176.28 100.583 176.525 101.117 176.92C101.661 177.315 101.933 177.88 101.933 178.616C101.933 179.117 101.789 179.571 101.501 179.976C101.223 180.371 100.829 180.68 100.317 180.904C99.8045 181.128 99.2072 181.24 98.5245 181.24ZM107.393 181.096C106.807 181.096 106.3 181.011 105.873 180.84C105.447 180.669 105.116 180.381 104.881 179.976C104.647 179.56 104.529 179.005 104.529 178.312V169.864H105.681V178.488C105.681 178.979 105.815 179.357 106.081 179.624C106.348 179.88 106.727 180.008 107.217 180.008H108.737V181.096H107.393ZM103.009 173.448V172.536H108.737V173.448H103.009ZM116.176 181V178.456H115.984V175.448C115.984 174.819 115.819 174.339 115.488 174.008C115.158 173.667 114.646 173.496 113.952 173.496C113.632 173.496 113.307 173.501 112.976 173.512C112.656 173.523 112.347 173.539 112.048 173.56C111.76 173.571 111.504 173.587 111.28 173.608V172.552C111.515 172.531 111.755 172.509 112 172.488C112.246 172.467 112.496 172.456 112.752 172.456C113.019 172.445 113.275 172.44 113.52 172.44C114.384 172.44 115.078 172.547 115.6 172.76C116.134 172.973 116.523 173.309 116.768 173.768C117.014 174.216 117.136 174.813 117.136 175.56V181H116.176ZM113.312 181.224C112.715 181.224 112.187 181.117 111.728 180.904C111.27 180.691 110.912 180.381 110.656 179.976C110.411 179.571 110.288 179.08 110.288 178.504C110.288 177.939 110.416 177.459 110.672 177.064C110.939 176.669 111.318 176.371 111.808 176.168C112.31 175.955 112.912 175.848 113.616 175.848H116.096V176.76H113.536C112.864 176.76 112.347 176.925 111.984 177.256C111.632 177.576 111.456 177.997 111.456 178.52C111.456 179.053 111.643 179.48 112.016 179.8C112.39 180.109 112.896 180.264 113.536 180.264C113.931 180.264 114.31 180.195 114.672 180.056C115.035 179.907 115.339 179.661 115.584 179.32C115.83 178.968 115.963 178.488 115.984 177.88L116.336 178.376C116.294 179.005 116.144 179.533 115.888 179.96C115.632 180.376 115.286 180.691 114.848 180.904C114.411 181.117 113.899 181.224 113.312 181.224ZM120.134 181V172.536H121.094V176.072H120.998C120.998 174.835 121.27 173.923 121.814 173.336C122.358 172.739 123.211 172.44 124.374 172.44H124.646V173.528H124.15C123.232 173.528 122.534 173.768 122.054 174.248C121.574 174.717 121.334 175.411 121.334 176.328V181H120.134ZM129.71 184.312C129.315 184.312 128.915 184.291 128.51 184.248C128.115 184.216 127.736 184.173 127.374 184.12V183.096C127.758 183.149 128.158 183.192 128.574 183.224C129 183.267 129.4 183.288 129.774 183.288C130.584 183.288 131.23 183.181 131.71 182.968C132.19 182.755 132.531 182.413 132.734 181.944C132.947 181.485 133.054 180.877 133.054 180.12V178.424L133.502 177.24C133.48 178.051 133.31 178.749 132.99 179.336C132.67 179.912 132.238 180.355 131.694 180.664C131.15 180.973 130.531 181.128 129.838 181.128C129.23 181.128 128.675 181.011 128.174 180.776C127.683 180.541 127.262 180.221 126.91 179.816C126.558 179.4 126.286 178.931 126.094 178.408C125.902 177.885 125.806 177.336 125.806 176.76V176.536C125.806 175.971 125.902 175.432 126.094 174.92C126.286 174.397 126.558 173.939 126.91 173.544C127.262 173.139 127.688 172.824 128.19 172.6C128.702 172.365 129.267 172.248 129.886 172.248C130.632 172.248 131.283 172.413 131.838 172.744C132.392 173.075 132.824 173.533 133.134 174.12C133.454 174.707 133.624 175.395 133.646 176.184L133.262 175.976V172.536H134.206V180.072C134.206 181.085 134.056 181.901 133.758 182.52C133.459 183.139 132.979 183.592 132.318 183.88C131.667 184.168 130.798 184.312 129.71 184.312ZM130.046 180.024C130.622 180.024 131.134 179.901 131.582 179.656C132.04 179.4 132.403 179.043 132.67 178.584C132.936 178.125 133.07 177.592 133.07 176.984V176.2C133.07 175.613 132.931 175.101 132.654 174.664C132.387 174.227 132.03 173.885 131.582 173.64C131.134 173.395 130.622 173.272 130.046 173.272C129.427 173.272 128.888 173.421 128.43 173.72C127.971 174.019 127.619 174.424 127.374 174.936C127.128 175.437 127.006 176.008 127.006 176.648C127.006 177.299 127.128 177.88 127.374 178.392C127.63 178.904 127.987 179.304 128.446 179.592C128.904 179.88 129.438 180.024 130.046 180.024ZM137.212 181V172.536H138.172V176.072H138.076C138.076 174.835 138.348 173.923 138.892 173.336C139.436 172.739 140.289 172.44 141.452 172.44H141.724V173.528H141.228C140.311 173.528 139.612 173.768 139.132 174.248C138.652 174.717 138.412 175.411 138.412 176.328V181H137.212ZM148.786 181V178.456H148.594V175.448C148.594 174.819 148.428 174.339 148.098 174.008C147.767 173.667 147.255 173.496 146.562 173.496C146.242 173.496 145.916 173.501 145.586 173.512C145.266 173.523 144.956 173.539 144.658 173.56C144.37 173.571 144.114 173.587 143.89 173.608V172.552C144.124 172.531 144.364 172.509 144.61 172.488C144.855 172.467 145.106 172.456 145.362 172.456C145.628 172.445 145.884 172.44 146.13 172.44C146.994 172.44 147.687 172.547 148.21 172.76C148.743 172.973 149.132 173.309 149.378 173.768C149.623 174.216 149.746 174.813 149.746 175.56V181H148.786ZM145.922 181.224C145.324 181.224 144.796 181.117 144.338 180.904C143.879 180.691 143.522 180.381 143.266 179.976C143.02 179.571 142.898 179.08 142.898 178.504C142.898 177.939 143.026 177.459 143.282 177.064C143.548 176.669 143.927 176.371 144.418 176.168C144.919 175.955 145.522 175.848 146.226 175.848H148.706V176.76H146.146C145.474 176.76 144.956 176.925 144.594 177.256C144.242 177.576 144.066 177.997 144.066 178.52C144.066 179.053 144.252 179.48 144.626 179.8C144.999 180.109 145.506 180.264 146.146 180.264C146.54 180.264 146.919 180.195 147.282 180.056C147.644 179.907 147.948 179.661 148.194 179.32C148.439 178.968 148.572 178.488 148.594 177.88L148.946 178.376C148.903 179.005 148.754 179.533 148.498 179.96C148.242 180.376 147.895 180.691 147.458 180.904C147.02 181.117 146.508 181.224 145.922 181.224ZM152.743 181V172.52H153.703V176.088H153.511C153.511 175.309 153.618 174.637 153.831 174.072C154.055 173.507 154.386 173.069 154.823 172.76C155.26 172.44 155.815 172.28 156.487 172.28H156.535C157.207 172.28 157.762 172.435 158.199 172.744C158.636 173.053 158.962 173.491 159.175 174.056C159.388 174.621 159.495 175.299 159.495 176.088H159.111C159.111 175.309 159.218 174.637 159.431 174.072C159.655 173.507 159.986 173.069 160.423 172.76C160.871 172.44 161.431 172.28 162.103 172.28H162.151C162.823 172.28 163.378 172.435 163.815 172.744C164.263 173.053 164.594 173.491 164.807 174.056C165.031 174.621 165.143 175.299 165.143 176.088V181H163.943V175.816C163.943 175.069 163.762 174.477 163.399 174.04C163.036 173.603 162.514 173.384 161.831 173.384C161.127 173.384 160.567 173.613 160.151 174.072C159.746 174.52 159.543 175.128 159.543 175.896V181H158.343V175.816C158.343 175.069 158.162 174.477 157.799 174.04C157.436 173.603 156.914 173.384 156.231 173.384C155.527 173.384 154.967 173.613 154.551 174.072C154.146 174.52 153.943 175.128 153.943 175.896V181H152.743ZM167.894 181V179.416H169.398V181H167.894ZM175.577 181.272C174.862 181.272 174.238 181.149 173.705 180.904C173.182 180.648 172.745 180.307 172.393 179.88C172.041 179.443 171.774 178.963 171.593 178.44C171.422 177.917 171.337 177.389 171.337 176.856V176.632C171.337 176.088 171.422 175.56 171.593 175.048C171.774 174.525 172.041 174.056 172.393 173.64C172.745 173.213 173.182 172.877 173.705 172.632C174.238 172.376 174.851 172.248 175.545 172.248C176.249 172.248 176.873 172.376 177.417 172.632C177.971 172.888 178.419 173.251 178.761 173.72C179.102 174.189 179.305 174.744 179.369 175.384H178.217C178.121 174.797 177.843 174.312 177.385 173.928C176.937 173.533 176.323 173.336 175.545 173.336C174.873 173.336 174.313 173.491 173.865 173.8C173.427 174.099 173.097 174.509 172.873 175.032C172.649 175.544 172.537 176.115 172.537 176.744C172.537 177.363 172.649 177.939 172.873 178.472C173.097 178.995 173.433 179.416 173.881 179.736C174.329 180.045 174.894 180.2 175.577 180.2C176.099 180.2 176.553 180.109 176.937 179.928C177.331 179.736 177.646 179.48 177.881 179.16C178.126 178.84 178.27 178.488 178.313 178.104H179.465C179.422 178.744 179.219 179.304 178.857 179.784C178.505 180.253 178.046 180.621 177.481 180.888C176.915 181.144 176.281 181.272 175.577 181.272ZM185.457 181.272C184.732 181.272 184.092 181.149 183.537 180.904C182.993 180.648 182.529 180.312 182.145 179.896C181.772 179.469 181.484 178.995 181.281 178.472C181.089 177.949 180.993 177.416 180.993 176.872V176.648C180.993 176.104 181.094 175.571 181.297 175.048C181.5 174.515 181.793 174.04 182.177 173.624C182.561 173.208 183.025 172.877 183.569 172.632C184.124 172.376 184.753 172.248 185.457 172.248C186.172 172.248 186.801 172.376 187.345 172.632C187.9 172.877 188.369 173.208 188.753 173.624C189.137 174.04 189.425 174.515 189.617 175.048C189.82 175.571 189.921 176.104 189.921 176.648V176.872C189.921 177.416 189.825 177.949 189.633 178.472C189.441 178.995 189.153 179.469 188.769 179.896C188.396 180.312 187.932 180.648 187.377 180.904C186.822 181.149 186.182 181.272 185.457 181.272ZM185.457 180.2C186.161 180.2 186.753 180.045 187.233 179.736C187.724 179.416 188.097 179 188.353 178.488C188.609 177.965 188.737 177.389 188.737 176.76C188.737 176.12 188.604 175.544 188.337 175.032C188.081 174.509 187.708 174.099 187.217 173.8C186.726 173.491 186.14 173.336 185.457 173.336C184.785 173.336 184.204 173.491 183.713 173.8C183.222 174.099 182.844 174.509 182.577 175.032C182.321 175.544 182.193 176.12 182.193 176.76C182.193 177.389 182.321 177.965 182.577 178.488C182.833 179 183.201 179.416 183.681 179.736C184.172 180.045 184.764 180.2 185.457 180.2ZM192.368 181V172.52H193.328V176.088H193.136C193.136 175.309 193.243 174.637 193.456 174.072C193.68 173.507 194.011 173.069 194.448 172.76C194.885 172.44 195.44 172.28 196.112 172.28H196.16C196.832 172.28 197.387 172.435 197.824 172.744C198.261 173.053 198.587 173.491 198.8 174.056C199.013 174.621 199.12 175.299 199.12 176.088H198.736C198.736 175.309 198.843 174.637 199.056 174.072C199.28 173.507 199.611 173.069 200.048 172.76C200.496 172.44 201.056 172.28 201.728 172.28H201.776C202.448 172.28 203.003 172.435 203.44 172.744C203.888 173.053 204.219 173.491 204.432 174.056C204.656 174.621 204.768 175.299 204.768 176.088V181H203.568V175.816C203.568 175.069 203.387 174.477 203.024 174.04C202.661 173.603 202.139 173.384 201.456 173.384C200.752 173.384 200.192 173.613 199.776 174.072C199.371 174.52 199.168 175.128 199.168 175.896V181H197.968V175.816C197.968 175.069 197.787 174.477 197.424 174.04C197.061 173.603 196.539 173.384 195.856 173.384C195.152 173.384 194.592 173.613 194.176 174.072C193.771 174.52 193.568 175.128 193.568 175.896V181H192.368Z" fill="#EF4444"/>
<path d="M231.785 171.501C233.166 171.501 234.285 170.381 234.285 169.001C234.285 167.621 233.166 166.502 231.785 166.502C230.404 166.502 229.285 167.621 229.285 169.001C229.285 170.381 230.404 171.501 231.785 171.501Z" fill="#EF4444"/>
<path d="M231.785 178.499C233.166 178.499 234.285 177.38 234.285 176C234.285 174.62 233.166 173.5 231.785 173.5C230.404 173.5 229.285 174.62 229.285 176C229.285 177.38 230.404 178.499 231.785 178.499Z" fill="#EF4444"/>
<path d="M231.785 185.498C233.166 185.498 234.285 184.379 234.285 182.999C234.285 181.618 233.166 180.499 231.785 180.499C230.404 180.499 229.285 181.618 229.285 182.999C229.285 184.379 230.404 185.498 231.785 185.498Z" fill="#EF4444"/>
</svg>
