<svg width="101" height="118" viewBox="0 0 101 118" fill="none" xmlns="http://www.w3.org/2000/svg">
<rect x="0.5" y="0.5" width="100" height="117" rx="4.5" stroke="#8A38F5" stroke-dasharray="10 5"/>
<rect opacity="0.25" x="23" y="71" width="54" height="27" rx="13.5" fill="#EF4444"/>
<path d="M57.8519 88V81.88H58.5359V88H57.8519ZM55.7999 82.051V81.43H60.5879V82.051H55.7999ZM64.311 88V86.569H64.203V84.877C64.203 84.523 64.11 84.253 63.924 84.067C63.738 83.875 63.45 83.779 63.06 83.779C62.88 83.779 62.697 83.782 62.511 83.788C62.331 83.794 62.157 83.803 61.989 83.815C61.827 83.821 61.683 83.83 61.557 83.842V83.248C61.689 83.236 61.824 83.224 61.962 83.212C62.1 83.2 62.241 83.194 62.385 83.194C62.535 83.188 62.679 83.185 62.817 83.185C63.303 83.185 63.693 83.245 63.987 83.365C64.287 83.485 64.506 83.674 64.644 83.932C64.782 84.184 64.851 84.52 64.851 84.94V88H64.311ZM62.7 88.126C62.364 88.126 62.067 88.066 61.809 87.946C61.551 87.826 61.35 87.652 61.206 87.424C61.068 87.196 60.999 86.92 60.999 86.596C60.999 86.278 61.071 86.008 61.215 85.786C61.365 85.564 61.578 85.396 61.854 85.282C62.136 85.162 62.475 85.102 62.871 85.102H64.266V85.615H62.826C62.448 85.615 62.157 85.708 61.953 85.894C61.755 86.074 61.656 86.311 61.656 86.605C61.656 86.905 61.761 87.145 61.971 87.325C62.181 87.499 62.466 87.586 62.826 87.586C63.048 87.586 63.261 87.547 63.465 87.469C63.669 87.385 63.84 87.247 63.978 87.055C64.116 86.857 64.191 86.587 64.203 86.245L64.401 86.524C64.377 86.878 64.293 87.175 64.149 87.415C64.005 87.649 63.81 87.826 63.564 87.946C63.318 88.066 63.03 88.126 62.7 88.126ZM63.042 82.537C62.616 82.537 62.295 82.384 62.079 82.078C61.863 81.766 61.746 81.325 61.728 80.755H62.214C62.238 81.175 62.313 81.502 62.439 81.736C62.571 81.964 62.772 82.078 63.042 82.078C63.306 82.078 63.504 81.964 63.636 81.736C63.774 81.502 63.855 81.175 63.879 80.755H64.338C64.32 81.325 64.206 81.766 63.996 82.078C63.786 82.384 63.468 82.537 63.042 82.537ZM62.6758 79.492L63.4588 77.755H64.1608L63.2428 79.492H62.6758ZM68.2651 88.054C67.9351 88.054 67.6501 88.006 67.4101 87.91C67.1701 87.814 66.9841 87.652 66.8521 87.424C66.7201 87.19 66.6541 86.878 66.6541 86.488V81.736H67.3021V86.587C67.3021 86.863 67.3771 87.076 67.5271 87.226C67.6771 87.37 67.8901 87.442 68.1661 87.442H69.0211V88.054H68.2651ZM65.7991 83.752V83.239H69.0211V83.752H65.7991Z" fill="#EF4444"/>
<rect x="25" y="73" width="23" height="23" rx="11.5" fill="#EF4444"/>
<rect opacity="0.25" x="23" y="20" width="54" height="27" rx="13.5" fill="#10B981"/>
<path d="M31.5947 37.027V36.424H33.5207C33.9107 36.424 34.2137 36.313 34.4297 36.091C34.6517 35.863 34.7627 35.563 34.7627 35.191C34.7627 34.825 34.6547 34.531 34.4387 34.309C34.2227 34.081 33.9167 33.967 33.5207 33.967H31.5947V33.517H33.4217C33.8177 33.517 34.1687 33.574 34.4747 33.688C34.7807 33.796 35.0207 33.97 35.1947 34.21C35.3687 34.45 35.4557 34.765 35.4557 35.155V35.263C35.4557 35.617 35.3807 35.929 35.2307 36.199C35.0807 36.463 34.8557 36.667 34.5557 36.811C34.2557 36.955 33.8777 37.027 33.4217 37.027H31.5947ZM31.0817 37.027V30.403H31.7657V37.027H31.0817ZM31.5947 33.841V33.391H33.2777C33.6917 33.391 33.9977 33.28 34.1957 33.058C34.3937 32.83 34.4927 32.545 34.4927 32.203C34.4927 31.849 34.3937 31.561 34.1957 31.339C33.9977 31.117 33.6917 31.006 33.2777 31.006H31.5947V30.403H33.1607C33.8387 30.403 34.3457 30.556 34.6817 30.862C35.0177 31.168 35.1857 31.591 35.1857 32.131V32.239C35.1857 32.617 35.1017 32.926 34.9337 33.166C34.7657 33.4 34.5287 33.571 34.2227 33.679C33.9227 33.787 33.5687 33.841 33.1607 33.841H31.5947ZM38.7033 32.095C39.2913 32.095 39.7263 32.224 40.0083 32.482C40.2903 32.74 40.4313 33.151 40.4313 33.715V37H39.8553L39.7023 36.316H39.6663C39.5283 36.49 39.3843 36.637 39.2343 36.757C39.0903 36.871 38.9223 36.955 38.7303 37.009C38.5443 37.063 38.3163 37.09 38.0463 37.09C37.7583 37.09 37.4973 37.039 37.2633 36.937C37.0353 36.835 36.8553 36.679 36.7233 36.469C36.5913 36.253 36.5253 35.983 36.5253 35.659C36.5253 35.179 36.7143 34.81 37.0923 34.552C37.4703 34.288 38.0523 34.144 38.8383 34.12L39.6573 34.093V33.805C39.6573 33.403 39.5703 33.124 39.3963 32.968C39.2223 32.812 38.9763 32.734 38.6583 32.734C38.4063 32.734 38.1663 32.773 37.9383 32.851C37.7103 32.923 37.4973 33.007 37.2993 33.103L37.0563 32.509C37.2663 32.395 37.5153 32.299 37.8033 32.221C38.0913 32.137 38.3913 32.095 38.7033 32.095ZM38.9373 34.669C38.3373 34.693 37.9203 34.789 37.6863 34.957C37.4583 35.125 37.3443 35.362 37.3443 35.668C37.3443 35.938 37.4253 36.136 37.5873 36.262C37.7553 36.388 37.9683 36.451 38.2263 36.451C38.6343 36.451 38.9733 36.34 39.2433 36.118C39.5133 35.89 39.6483 35.542 39.6483 35.074V34.642L38.9373 34.669ZM39.0543 30.106C39.1263 30.238 39.2283 30.388 39.3603 30.556C39.4983 30.718 39.6393 30.88 39.7833 31.042C39.9333 31.198 40.0653 31.333 40.1793 31.447V31.546H39.6213C39.4653 31.45 39.3033 31.333 39.1353 31.195C38.9673 31.051 38.8023 30.898 38.6403 30.736C38.4783 30.898 38.3163 31.048 38.1543 31.186C37.9923 31.324 37.8333 31.444 37.6773 31.546H37.1373V31.447C37.2513 31.327 37.3773 31.189 37.5153 31.033C37.6593 30.877 37.7973 30.718 37.9293 30.556C38.0613 30.388 38.1663 30.238 38.2443 30.106H39.0543ZM38.5773 38.584C38.4513 38.584 38.3403 38.542 38.2443 38.458C38.1543 38.374 38.1093 38.248 38.1093 38.08C38.1093 37.906 38.1543 37.777 38.2443 37.693C38.3403 37.615 38.4513 37.576 38.5773 37.576C38.7033 37.576 38.8113 37.615 38.9013 37.693C38.9973 37.777 39.0453 37.906 39.0453 38.08C39.0453 38.248 38.9973 38.374 38.9013 38.458C38.8113 38.542 38.7033 38.584 38.5773 38.584ZM43.7573 37.054C43.4273 37.054 43.1423 37.006 42.9023 36.91C42.6623 36.814 42.4763 36.652 42.3442 36.424C42.2123 36.19 42.1463 35.878 42.1463 35.488V30.736H42.7943V35.587C42.7943 35.863 42.8693 36.076 43.0193 36.226C43.1693 36.37 43.3823 36.442 43.6583 36.442H44.5133V37.054H43.7573ZM41.2913 32.752V32.239H44.5133V32.752H41.2913Z" fill="#10B981"/>
<rect x="52" y="22" width="23" height="23" rx="11.5" fill="#10B981"/>
</svg>
