<svg width="62" height="108" viewBox="0 0 62 108" fill="none" xmlns="http://www.w3.org/2000/svg">
<rect x="0.5" y="0.5" width="61" height="107" rx="4.5" stroke="#8A38F5" stroke-dasharray="10 5"/>
<path d="M24 29C28.9706 29 33 24.9706 33 20C33 15.0294 28.9706 11 24 11C19.0294 11 15 15.0294 15 20C15 24.9706 19.0294 29 24 29Z" fill="#0D5EA6"/>
<path d="M24 16.9669C24.6213 16.9669 25.125 16.4632 25.125 15.8419C25.125 15.2206 24.6213 14.7169 24 14.7169C23.3787 14.7169 22.875 15.2206 22.875 15.8419C22.875 16.4632 23.3787 16.9669 24 16.9669Z" fill="white"/>
<path d="M24 25.2919C23.7613 25.2919 23.5323 25.1971 23.3636 25.0283C23.1948 24.8595 23.1 24.6306 23.1 24.3919V19.8919C22.8613 19.8919 22.6323 19.7971 22.4636 19.6283C22.2948 19.4595 22.2 19.2306 22.2 18.9919C22.2 18.7532 22.2948 18.5243 22.4636 18.3555C22.6323 18.1867 22.8613 18.0919 23.1 18.0919H24C24.2386 18.0919 24.4676 18.1867 24.6363 18.3555C24.8051 18.5243 24.9 18.7532 24.9 18.9919V24.3919C24.9 24.6306 24.8051 24.8595 24.6363 25.0283C24.4676 25.1971 24.2386 25.2919 24 25.2919Z" fill="white"/>
<path d="M24.9 25.2921H23.1C22.8613 25.2921 22.6323 25.1972 22.4636 25.0285C22.2948 24.8597 22.2 24.6308 22.2 24.3921C22.2 24.1534 22.2948 23.9245 22.4636 23.7557C22.6323 23.5869 22.8613 23.4921 23.1 23.4921H24.9C25.1386 23.4921 25.3676 23.5869 25.5363 23.7557C25.7051 23.9245 25.8 24.1534 25.8 24.3921C25.8 24.6308 25.7051 24.8597 25.5363 25.0285C25.3676 25.1972 25.1386 25.2921 24.9 25.2921Z" fill="white"/>
<path d="M24 61C28.9706 61 33 56.9706 33 52C33 47.0294 28.9706 43 24 43C19.0294 43 15 47.0294 15 52C15 56.9706 19.0294 61 24 61Z" fill="#0EA5E9"/>
<path d="M24 48.9669C24.6213 48.9669 25.125 48.4632 25.125 47.8419C25.125 47.2206 24.6213 46.7169 24 46.7169C23.3787 46.7169 22.875 47.2206 22.875 47.8419C22.875 48.4632 23.3787 48.9669 24 48.9669Z" fill="white"/>
<path d="M24 57.2919C23.7613 57.2919 23.5323 57.1971 23.3636 57.0283C23.1948 56.8595 23.1 56.6306 23.1 56.3919V51.8919C22.8613 51.8919 22.6323 51.7971 22.4636 51.6283C22.2948 51.4595 22.2 51.2306 22.2 50.9919C22.2 50.7532 22.2948 50.5243 22.4636 50.3555C22.6323 50.1867 22.8613 50.0919 23.1 50.0919H24C24.2386 50.0919 24.4676 50.1867 24.6363 50.3555C24.8051 50.5243 24.9 50.7532 24.9 50.9919V56.3919C24.9 56.6306 24.8051 56.8595 24.6363 57.0283C24.4676 57.1971 24.2386 57.2919 24 57.2919Z" fill="white"/>
<path d="M24.9 57.2921H23.1C22.8613 57.2921 22.6323 57.1972 22.4636 57.0285C22.2948 56.8597 22.2 56.6308 22.2 56.3921C22.2 56.1534 22.2948 55.9245 22.4636 55.7557C22.6323 55.5869 22.8613 55.4921 23.1 55.4921H24.9C25.1386 55.4921 25.3676 55.5869 25.5363 55.7557C25.7051 55.9245 25.8 56.1534 25.8 56.3921C25.8 56.6308 25.7051 56.8597 25.5363 57.0285C25.3676 57.1972 25.1386 57.2921 24.9 57.2921Z" fill="white"/>
<path d="M24 75.5C28.6944 75.5 32.5 79.3056 32.5 84C32.5 88.6944 28.6944 92.5 24 92.5C19.3056 92.5 15.5 88.6944 15.5 84C15.5 79.3056 19.3056 75.5 24 75.5Z" fill="white" stroke="#0EA5E9"/>
<path d="M24 80.9669C24.6213 80.9669 25.125 80.4632 25.125 79.8419C25.125 79.2206 24.6213 78.7169 24 78.7169C23.3787 78.7169 22.875 79.2206 22.875 79.8419C22.875 80.4632 23.3787 80.9669 24 80.9669Z" fill="#0EA5E9"/>
<path d="M24 89.2919C23.7613 89.2919 23.5323 89.1971 23.3636 89.0283C23.1948 88.8595 23.1 88.6306 23.1 88.3919V83.8919C22.8613 83.8919 22.6323 83.7971 22.4636 83.6283C22.2948 83.4595 22.2 83.2306 22.2 82.9919C22.2 82.7532 22.2948 82.5243 22.4636 82.3555C22.6323 82.1867 22.8613 82.0919 23.1 82.0919H24C24.2386 82.0919 24.4676 82.1867 24.6363 82.3555C24.8051 82.5243 24.9 82.7532 24.9 82.9919V88.3919C24.9 88.6306 24.8051 88.8595 24.6363 89.0283C24.4676 89.1971 24.2386 89.2919 24 89.2919Z" fill="#0EA5E9"/>
<path d="M24.9 89.2921H23.1C22.8613 89.2921 22.6323 89.1972 22.4636 89.0285C22.2948 88.8597 22.2 88.6308 22.2 88.3921C22.2 88.1534 22.2948 87.9245 22.4636 87.7557C22.6323 87.5869 22.8613 87.4921 23.1 87.4921H24.9C25.1386 87.4921 25.3676 87.5869 25.5363 87.7557C25.7051 87.9245 25.8 88.1534 25.8 88.3921C25.8 88.6308 25.7051 88.8597 25.5363 89.0285C25.3676 89.1972 25.1386 89.2921 24.9 89.2921Z" fill="#0EA5E9"/>
</svg>
