<svg width="120" height="152" viewBox="0 0 120 152" fill="none" xmlns="http://www.w3.org/2000/svg">
<rect x="0.5" y="0.5" width="119" height="151" rx="4.5" stroke="#8A38F5" stroke-dasharray="10 5"/>
<rect x="20" y="20" width="71" height="24" rx="8" fill="#E5E7EB" stroke="#D1D5DB"/>
<path d="M29.6223 35.04V33.72H31.1323C31.5123 33.72 31.849 33.6633 32.1423 33.55C32.4423 33.43 32.6957 33.2633 32.9023 33.05C33.109 32.8367 33.2657 32.5867 33.3723 32.3C33.4857 32.0067 33.5423 31.6833 33.5423 31.33C33.5423 30.9633 33.4857 30.6367 33.3723 30.35C33.2657 30.0567 33.109 29.8067 32.9023 29.6C32.6957 29.3933 32.4423 29.2367 32.1423 29.13C31.849 29.0233 31.5123 28.97 31.1323 28.97H29.6223V27.65H31.0423C31.7023 27.65 32.279 27.7467 32.7723 27.94C33.2657 28.1333 33.6757 28.4 34.0023 28.74C34.329 29.0733 34.5723 29.4567 34.7323 29.89C34.899 30.3167 34.9823 30.76 34.9823 31.22V31.44C34.9823 31.88 34.899 32.3133 34.7323 32.74C34.5723 33.1667 34.329 33.5533 34.0023 33.9C33.6757 34.2467 33.2657 34.5233 32.7723 34.73C32.279 34.9367 31.7023 35.04 31.0423 35.04H29.6223ZM28.4023 35.04V27.65H29.8223V35.04H28.4023ZM27.6723 31.93V30.77H31.4723V31.93H27.6723ZM39.5339 35V33.39H39.3039V31.6C39.3039 31.2867 39.2272 31.0533 39.0739 30.9C38.9206 30.7467 38.6839 30.67 38.3639 30.67C38.1972 30.67 37.9972 30.6733 37.7639 30.68C37.5306 30.6867 37.2939 30.6967 37.0539 30.71C36.8206 30.7167 36.6106 30.7267 36.4239 30.74V29.56C36.5772 29.5467 36.7506 29.5333 36.9439 29.52C37.1372 29.5067 37.3339 29.5 37.5339 29.5C37.7406 29.4933 37.9339 29.49 38.1139 29.49C38.6739 29.49 39.1372 29.5633 39.5039 29.71C39.8772 29.8567 40.1572 30.0867 40.3439 30.4C40.5372 30.7133 40.6339 31.1233 40.6339 31.63V35H39.5339ZM37.7839 35.14C37.3906 35.14 37.0439 35.07 36.7439 34.93C36.4506 34.79 36.2206 34.59 36.0539 34.33C35.8939 34.07 35.8139 33.7567 35.8139 33.39C35.8139 32.99 35.9106 32.6633 36.1039 32.41C36.3039 32.1567 36.5806 31.9667 36.9339 31.84C37.2939 31.7133 37.7139 31.65 38.1939 31.65H39.4539V32.48H38.1739C37.8539 32.48 37.6072 32.56 37.4339 32.72C37.2672 32.8733 37.1839 33.0733 37.1839 33.32C37.1839 33.5667 37.2672 33.7667 37.4339 33.92C37.6072 34.0733 37.8539 34.15 38.1739 34.15C38.3672 34.15 38.5439 34.1167 38.7039 34.05C38.8706 33.9767 39.0072 33.8567 39.1139 33.69C39.2272 33.5167 39.2906 33.2833 39.3039 32.99L39.6439 33.38C39.6106 33.76 39.5172 34.08 39.3639 34.34C39.2172 34.6 39.0106 34.8 38.7439 34.94C38.4839 35.0733 38.1639 35.14 37.7839 35.14ZM38.3339 28.94C37.7872 28.94 37.3672 28.7633 37.0739 28.41C36.7806 28.05 36.6239 27.5233 36.6039 26.83H37.6039C37.6239 27.2233 37.6939 27.5133 37.8139 27.7C37.9339 27.8867 38.1072 27.98 38.3339 27.98C38.5672 27.98 38.7472 27.8867 38.8739 27.7C39.0006 27.5133 39.0706 27.2233 39.0839 26.83H40.0439C40.0239 27.5233 39.8706 28.05 39.5839 28.41C39.3039 28.7633 38.8872 28.94 38.3339 28.94ZM42.2228 35V29.57H43.3228V31.9H43.2228C43.2228 31.3467 43.2961 30.8867 43.4428 30.52C43.5895 30.1467 43.8061 29.8667 44.0928 29.68C44.3861 29.4933 44.7495 29.4 45.1828 29.4H45.2428C45.8895 29.4 46.3795 29.61 46.7128 30.03C47.0461 30.4433 47.2128 31.0633 47.2128 31.89V35H45.8228V31.77C45.8228 31.4367 45.7261 31.1667 45.5328 30.96C45.3461 30.7533 45.0861 30.65 44.7528 30.65C44.4128 30.65 44.1361 30.7567 43.9228 30.97C43.7161 31.1767 43.6128 31.4567 43.6128 31.81V35H42.2228ZM50.9272 37.14C50.6672 37.14 50.4005 37.13 50.1272 37.11C49.8605 37.09 49.6105 37.0633 49.3772 37.03V35.87C49.6172 35.8967 49.8739 35.92 50.1472 35.94C50.4205 35.9667 50.6772 35.98 50.9172 35.98C51.3639 35.98 51.7239 35.9267 51.9972 35.82C52.2772 35.7133 52.4805 35.5433 52.6072 35.31C52.7405 35.0833 52.8072 34.7933 52.8072 34.44V33.37L53.1072 32.69C53.0872 33.19 52.9839 33.6167 52.7972 33.97C52.6105 34.3167 52.3572 34.5833 52.0372 34.77C51.7172 34.95 51.3472 35.04 50.9272 35.04C50.5539 35.04 50.2139 34.97 49.9072 34.83C49.6072 34.69 49.3472 34.4967 49.1272 34.25C48.9139 34.0033 48.7472 33.7133 48.6272 33.38C48.5072 33.0467 48.4472 32.69 48.4472 32.31V32.1C48.4472 31.72 48.5072 31.3667 48.6272 31.04C48.7539 30.7067 48.9305 30.4167 49.1572 30.17C49.3839 29.9233 49.6539 29.7333 49.9672 29.6C50.2805 29.4667 50.6272 29.4 51.0072 29.4C51.4539 29.4 51.8405 29.4967 52.1672 29.69C52.5005 29.8833 52.7605 30.1633 52.9472 30.53C53.1339 30.8967 53.2372 31.3467 53.2572 31.88L53.0172 31.92V29.57H54.1172V34.36C54.1172 35.02 54.0039 35.5533 53.7772 35.96C53.5505 36.3667 53.2005 36.6633 52.7272 36.85C52.2605 37.0433 51.6605 37.14 50.9272 37.14ZM51.3272 33.85C51.5939 33.85 51.8372 33.79 52.0572 33.67C52.2772 33.55 52.4539 33.3767 52.5872 33.15C52.7205 32.9233 52.7872 32.65 52.7872 32.33V31.98C52.7872 31.6733 52.7172 31.4133 52.5772 31.2C52.4439 30.9867 52.2672 30.8267 52.0472 30.72C51.8272 30.6067 51.5872 30.55 51.3272 30.55C51.0339 30.55 50.7739 30.62 50.5472 30.76C50.3272 30.8933 50.1539 31.0833 50.0272 31.33C49.9005 31.5767 49.8372 31.87 49.8372 32.21C49.8372 32.5433 49.9005 32.8333 50.0272 33.08C50.1539 33.3267 50.3272 33.5167 50.5472 33.65C50.7739 33.7833 51.0339 33.85 51.3272 33.85ZM57.9916 35V29.57H59.0916V31.9H58.9916C58.9916 31.3467 59.0649 30.8867 59.2116 30.52C59.3582 30.1467 59.5749 29.8667 59.8616 29.68C60.1549 29.4933 60.5182 29.4 60.9516 29.4H61.0116C61.6582 29.4 62.1482 29.61 62.4816 30.03C62.8149 30.4433 62.9816 31.0633 62.9816 31.89V35H61.5916V31.77C61.5916 31.4367 61.4949 31.1667 61.3016 30.96C61.1149 30.7533 60.8549 30.65 60.5216 30.65C60.1816 30.65 59.9049 30.7567 59.6916 30.97C59.4849 31.1767 59.3816 31.4567 59.3816 31.81V35H57.9916ZM64.5759 35V27.7H65.9659V31.96H65.7259C65.7259 31.4133 65.7959 30.95 65.9359 30.57C66.0759 30.19 66.2826 29.9 66.5559 29.7C66.8359 29.5 67.1893 29.4 67.6159 29.4H67.6759C68.2959 29.4 68.7659 29.6133 69.0859 30.04C69.4059 30.4667 69.5659 31.0867 69.5659 31.9V35H68.1759V31.77C68.1759 31.4233 68.0759 31.15 67.8759 30.95C67.6826 30.75 67.4259 30.65 67.1059 30.65C66.7659 30.65 66.4893 30.7633 66.2759 30.99C66.0693 31.21 65.9659 31.5 65.9659 31.86V35H64.5759ZM73.3903 29.43C74.1236 29.43 74.6836 29.59 75.0703 29.91C75.4636 30.2233 75.6603 30.7067 75.6603 31.36V35H74.6203L74.3303 34.26H74.2903C74.137 34.4533 73.977 34.6133 73.8103 34.74C73.6503 34.8667 73.4636 34.9567 73.2503 35.01C73.0436 35.07 72.787 35.1 72.4803 35.1C72.1603 35.1 71.8703 35.04 71.6103 34.92C71.357 34.7933 71.157 34.6033 71.0103 34.35C70.8636 34.09 70.7903 33.7633 70.7903 33.37C70.7903 32.79 70.9936 32.3633 71.4003 32.09C71.807 31.81 72.417 31.6567 73.2303 31.63L74.1803 31.6V31.36C74.1803 31.0733 74.1036 30.8633 73.9503 30.73C73.8036 30.5967 73.597 30.53 73.3303 30.53C73.0636 30.53 72.8036 30.57 72.5503 30.65C72.297 30.7233 72.0436 30.8167 71.7903 30.93L71.3003 29.92C71.5936 29.7667 71.917 29.6467 72.2703 29.56C72.6303 29.4733 73.0036 29.43 73.3903 29.43ZM73.6003 32.49C73.1203 32.5033 72.787 32.59 72.6003 32.75C72.4136 32.91 72.3203 33.12 72.3203 33.38C72.3203 33.6067 72.387 33.77 72.5203 33.87C72.6536 33.9633 72.827 34.01 73.0403 34.01C73.3603 34.01 73.6303 33.9167 73.8503 33.73C74.0703 33.5367 74.1803 33.2667 74.1803 32.92V32.47L73.6003 32.49ZM74.2703 27.34C74.3636 27.4867 74.4836 27.6533 74.6303 27.84C74.7836 28.02 74.9403 28.1967 75.1003 28.37C75.2603 28.5433 75.4003 28.69 75.5203 28.81V28.94H74.5303C74.357 28.8333 74.167 28.71 73.9603 28.57C73.7536 28.4233 73.5636 28.26 73.3903 28.08C73.217 28.26 73.0303 28.42 72.8303 28.56C72.6303 28.7 72.4436 28.8267 72.2703 28.94H71.2803V28.81C71.407 28.6833 71.547 28.5367 71.7003 28.37C71.8603 28.1967 72.0136 28.02 72.1603 27.84C72.3136 27.6533 72.437 27.4867 72.5303 27.34H74.2703ZM73.2703 37.1C73.0436 37.1 72.8503 37.0467 72.6903 36.94C72.537 36.8333 72.4603 36.6433 72.4603 36.37C72.4603 36.09 72.537 35.8967 72.6903 35.79C72.8503 35.69 73.0436 35.64 73.2703 35.64C73.4903 35.64 73.6803 35.69 73.8403 35.79C74.0003 35.8967 74.0803 36.09 74.0803 36.37C74.0803 36.6433 74.0003 36.8333 73.8403 36.94C73.6803 37.0467 73.4903 37.1 73.2703 37.1ZM77.2955 37V29.57H78.3955V31.91L78.2255 31.9C78.2521 31.3467 78.3655 30.8833 78.5655 30.51C78.7721 30.1367 79.0455 29.86 79.3855 29.68C79.7255 29.4933 80.1055 29.4 80.5255 29.4C80.9121 29.4 81.2588 29.47 81.5655 29.61C81.8788 29.75 82.1455 29.9467 82.3655 30.2C82.5921 30.4533 82.7655 30.75 82.8855 31.09C83.0055 31.4233 83.0655 31.7833 83.0655 32.17V32.38C83.0655 32.7733 83.0055 33.14 82.8855 33.48C82.7721 33.8133 82.6021 34.11 82.3755 34.37C82.1555 34.6233 81.8888 34.8233 81.5755 34.97C81.2621 35.11 80.9121 35.18 80.5255 35.18C80.1188 35.18 79.7455 35.0967 79.4055 34.93C79.0721 34.7567 78.8021 34.4933 78.5955 34.14C78.3888 33.78 78.2721 33.3167 78.2455 32.75L78.6855 33.42V37H77.2955ZM80.1755 34.01C80.4755 34.01 80.7355 33.9367 80.9555 33.79C81.1821 33.6433 81.3588 33.44 81.4855 33.18C81.6121 32.9133 81.6755 32.6133 81.6755 32.28C81.6755 31.9333 81.6121 31.6333 81.4855 31.38C81.3588 31.1267 81.1821 30.93 80.9555 30.79C80.7355 30.6433 80.4755 30.57 80.1755 30.57C79.9021 30.57 79.6488 30.63 79.4155 30.75C79.1888 30.87 79.0021 31.0467 78.8555 31.28C78.7155 31.5133 78.6455 31.7933 78.6455 32.12V32.52C78.6455 32.8333 78.7188 33.1 78.8655 33.32C79.0121 33.54 79.2021 33.71 79.4355 33.83C79.6688 33.95 79.9155 34.01 80.1755 34.01Z" fill="#0D5EA6"/>
<rect x="20" y="64" width="71" height="24" rx="8" fill="#0D5EA6" stroke="#0D5EA6"/>
<path d="M29.1223 79.04V77.72H30.6323C31.0123 77.72 31.349 77.6633 31.6423 77.55C31.9423 77.43 32.1957 77.2633 32.4023 77.05C32.609 76.8367 32.7657 76.5867 32.8723 76.3C32.9857 76.0067 33.0423 75.6833 33.0423 75.33C33.0423 74.9633 32.9857 74.6367 32.8723 74.35C32.7657 74.0567 32.609 73.8067 32.4023 73.6C32.1957 73.3933 31.9423 73.2367 31.6423 73.13C31.349 73.0233 31.0123 72.97 30.6323 72.97H29.1223V71.65H30.5423C31.2023 71.65 31.779 71.7467 32.2723 71.94C32.7657 72.1333 33.1757 72.4 33.5023 72.74C33.829 73.0733 34.0723 73.4567 34.2323 73.89C34.399 74.3167 34.4823 74.76 34.4823 75.22V75.44C34.4823 75.88 34.399 76.3133 34.2323 76.74C34.0723 77.1667 33.829 77.5533 33.5023 77.9C33.1757 78.2467 32.7657 78.5233 32.2723 78.73C31.779 78.9367 31.2023 79.04 30.5423 79.04H29.1223ZM27.9023 79.04V71.65H29.3223V79.04H27.9023ZM27.1723 75.93V74.77H30.9723V75.93H27.1723ZM39.0339 79V77.39H38.8039V75.6C38.8039 75.2867 38.7272 75.0533 38.5739 74.9C38.4206 74.7467 38.1839 74.67 37.8639 74.67C37.6972 74.67 37.4972 74.6733 37.2639 74.68C37.0306 74.6867 36.7939 74.6967 36.5539 74.71C36.3206 74.7167 36.1106 74.7267 35.9239 74.74V73.56C36.0772 73.5467 36.2506 73.5333 36.4439 73.52C36.6372 73.5067 36.8339 73.5 37.0339 73.5C37.2406 73.4933 37.4339 73.49 37.6139 73.49C38.1739 73.49 38.6372 73.5633 39.0039 73.71C39.3772 73.8567 39.6572 74.0867 39.8439 74.4C40.0372 74.7133 40.1339 75.1233 40.1339 75.63V79H39.0339ZM37.2839 79.14C36.8906 79.14 36.5439 79.07 36.2439 78.93C35.9506 78.79 35.7206 78.59 35.5539 78.33C35.3939 78.07 35.3139 77.7567 35.3139 77.39C35.3139 76.99 35.4106 76.6633 35.6039 76.41C35.8039 76.1567 36.0806 75.9667 36.4339 75.84C36.7939 75.7133 37.2139 75.65 37.6939 75.65H38.9539V76.48H37.6739C37.3539 76.48 37.1072 76.56 36.9339 76.72C36.7672 76.8733 36.6839 77.0733 36.6839 77.32C36.6839 77.5667 36.7672 77.7667 36.9339 77.92C37.1072 78.0733 37.3539 78.15 37.6739 78.15C37.8672 78.15 38.0439 78.1167 38.2039 78.05C38.3706 77.9767 38.5072 77.8567 38.6139 77.69C38.7272 77.5167 38.7906 77.2833 38.8039 76.99L39.1439 77.38C39.1106 77.76 39.0172 78.08 38.8639 78.34C38.7172 78.6 38.5106 78.8 38.2439 78.94C37.9839 79.0733 37.6639 79.14 37.2839 79.14ZM37.8339 72.94C37.2872 72.94 36.8672 72.7633 36.5739 72.41C36.2806 72.05 36.1239 71.5233 36.1039 70.83H37.1039C37.1239 71.2233 37.1939 71.5133 37.3139 71.7C37.4339 71.8867 37.6072 71.98 37.8339 71.98C38.0672 71.98 38.2472 71.8867 38.3739 71.7C38.5006 71.5133 38.5706 71.2233 38.5839 70.83H39.5439C39.5239 71.5233 39.3706 72.05 39.0839 72.41C38.8039 72.7633 38.3872 72.94 37.8339 72.94ZM41.7228 79V73.57H42.8228V75.9H42.7228C42.7228 75.3467 42.7961 74.8867 42.9428 74.52C43.0895 74.1467 43.3061 73.8667 43.5928 73.68C43.8861 73.4933 44.2495 73.4 44.6828 73.4H44.7428C45.3895 73.4 45.8795 73.61 46.2128 74.03C46.5461 74.4433 46.7128 75.0633 46.7128 75.89V79H45.3228V75.77C45.3228 75.4367 45.2261 75.1667 45.0328 74.96C44.8461 74.7533 44.5861 74.65 44.2528 74.65C43.9128 74.65 43.6361 74.7567 43.4228 74.97C43.2161 75.1767 43.1128 75.4567 43.1128 75.81V79H41.7228ZM50.4272 81.14C50.1672 81.14 49.9005 81.13 49.6272 81.11C49.3605 81.09 49.1105 81.0633 48.8772 81.03V79.87C49.1172 79.8967 49.3739 79.92 49.6472 79.94C49.9205 79.9667 50.1772 79.98 50.4172 79.98C50.8639 79.98 51.2239 79.9267 51.4972 79.82C51.7772 79.7133 51.9805 79.5433 52.1072 79.31C52.2405 79.0833 52.3072 78.7933 52.3072 78.44V77.37L52.6072 76.69C52.5872 77.19 52.4839 77.6167 52.2972 77.97C52.1105 78.3167 51.8572 78.5833 51.5372 78.77C51.2172 78.95 50.8472 79.04 50.4272 79.04C50.0539 79.04 49.7139 78.97 49.4072 78.83C49.1072 78.69 48.8472 78.4967 48.6272 78.25C48.4139 78.0033 48.2472 77.7133 48.1272 77.38C48.0072 77.0467 47.9472 76.69 47.9472 76.31V76.1C47.9472 75.72 48.0072 75.3667 48.1272 75.04C48.2539 74.7067 48.4305 74.4167 48.6572 74.17C48.8839 73.9233 49.1539 73.7333 49.4672 73.6C49.7805 73.4667 50.1272 73.4 50.5072 73.4C50.9539 73.4 51.3405 73.4967 51.6672 73.69C52.0005 73.8833 52.2605 74.1633 52.4472 74.53C52.6339 74.8967 52.7372 75.3467 52.7572 75.88L52.5172 75.92V73.57H53.6172V78.36C53.6172 79.02 53.5039 79.5533 53.2772 79.96C53.0505 80.3667 52.7005 80.6633 52.2272 80.85C51.7605 81.0433 51.1605 81.14 50.4272 81.14ZM50.8272 77.85C51.0939 77.85 51.3372 77.79 51.5572 77.67C51.7772 77.55 51.9539 77.3767 52.0872 77.15C52.2205 76.9233 52.2872 76.65 52.2872 76.33V75.98C52.2872 75.6733 52.2172 75.4133 52.0772 75.2C51.9439 74.9867 51.7672 74.8267 51.5472 74.72C51.3272 74.6067 51.0872 74.55 50.8272 74.55C50.5339 74.55 50.2739 74.62 50.0472 74.76C49.8272 74.8933 49.6539 75.0833 49.5272 75.33C49.4005 75.5767 49.3372 75.87 49.3372 76.21C49.3372 76.5433 49.4005 76.8333 49.5272 77.08C49.6539 77.3267 49.8272 77.5167 50.0472 77.65C50.2739 77.7833 50.5339 77.85 50.8272 77.85ZM57.4916 79V73.57H58.5916V75.9H58.4916C58.4916 75.3467 58.5649 74.8867 58.7116 74.52C58.8582 74.1467 59.0749 73.8667 59.3616 73.68C59.6549 73.4933 60.0182 73.4 60.4516 73.4H60.5116C61.1582 73.4 61.6482 73.61 61.9816 74.03C62.3149 74.4433 62.4816 75.0633 62.4816 75.89V79H61.0916V75.77C61.0916 75.4367 60.9949 75.1667 60.8016 74.96C60.6149 74.7533 60.3549 74.65 60.0216 74.65C59.6816 74.65 59.4049 74.7567 59.1916 74.97C58.9849 75.1767 58.8816 75.4567 58.8816 75.81V79H57.4916ZM64.0759 79V71.7H65.4659V75.96H65.2259C65.2259 75.4133 65.2959 74.95 65.4359 74.57C65.5759 74.19 65.7826 73.9 66.0559 73.7C66.3359 73.5 66.6893 73.4 67.1159 73.4H67.1759C67.7959 73.4 68.2659 73.6133 68.5859 74.04C68.9059 74.4667 69.0659 75.0867 69.0659 75.9V79H67.6759V75.77C67.6759 75.4233 67.5759 75.15 67.3759 74.95C67.1826 74.75 66.9259 74.65 66.6059 74.65C66.2659 74.65 65.9893 74.7633 65.7759 74.99C65.5693 75.21 65.4659 75.5 65.4659 75.86V79H64.0759ZM72.8903 73.43C73.6236 73.43 74.1836 73.59 74.5703 73.91C74.9636 74.2233 75.1603 74.7067 75.1603 75.36V79H74.1203L73.8303 78.26H73.7903C73.637 78.4533 73.477 78.6133 73.3103 78.74C73.1503 78.8667 72.9636 78.9567 72.7503 79.01C72.5436 79.07 72.287 79.1 71.9803 79.1C71.6603 79.1 71.3703 79.04 71.1103 78.92C70.857 78.7933 70.657 78.6033 70.5103 78.35C70.3636 78.09 70.2903 77.7633 70.2903 77.37C70.2903 76.79 70.4936 76.3633 70.9003 76.09C71.307 75.81 71.917 75.6567 72.7303 75.63L73.6803 75.6V75.36C73.6803 75.0733 73.6036 74.8633 73.4503 74.73C73.3036 74.5967 73.097 74.53 72.8303 74.53C72.5636 74.53 72.3036 74.57 72.0503 74.65C71.797 74.7233 71.5436 74.8167 71.2903 74.93L70.8003 73.92C71.0936 73.7667 71.417 73.6467 71.7703 73.56C72.1303 73.4733 72.5036 73.43 72.8903 73.43ZM73.1003 76.49C72.6203 76.5033 72.287 76.59 72.1003 76.75C71.9136 76.91 71.8203 77.12 71.8203 77.38C71.8203 77.6067 71.887 77.77 72.0203 77.87C72.1536 77.9633 72.327 78.01 72.5403 78.01C72.8603 78.01 73.1303 77.9167 73.3503 77.73C73.5703 77.5367 73.6803 77.2667 73.6803 76.92V76.47L73.1003 76.49ZM73.7703 71.34C73.8636 71.4867 73.9836 71.6533 74.1303 71.84C74.2836 72.02 74.4403 72.1967 74.6003 72.37C74.7603 72.5433 74.9003 72.69 75.0203 72.81V72.94H74.0303C73.857 72.8333 73.667 72.71 73.4603 72.57C73.2536 72.4233 73.0636 72.26 72.8903 72.08C72.717 72.26 72.5303 72.42 72.3303 72.56C72.1303 72.7 71.9436 72.8267 71.7703 72.94H70.7803V72.81C70.907 72.6833 71.047 72.5367 71.2003 72.37C71.3603 72.1967 71.5136 72.02 71.6603 71.84C71.8136 71.6533 71.937 71.4867 72.0303 71.34H73.7703ZM72.7703 81.1C72.5436 81.1 72.3503 81.0467 72.1903 80.94C72.037 80.8333 71.9603 80.6433 71.9603 80.37C71.9603 80.09 72.037 79.8967 72.1903 79.79C72.3503 79.69 72.5436 79.64 72.7703 79.64C72.9903 79.64 73.1803 79.69 73.3403 79.79C73.5003 79.8967 73.5803 80.09 73.5803 80.37C73.5803 80.6433 73.5003 80.8333 73.3403 80.94C73.1803 81.0467 72.9903 81.1 72.7703 81.1ZM76.7955 81V73.57H77.8955V75.91L77.7255 75.9C77.7521 75.3467 77.8655 74.8833 78.0655 74.51C78.2721 74.1367 78.5455 73.86 78.8855 73.68C79.2255 73.4933 79.6055 73.4 80.0255 73.4C80.4121 73.4 80.7588 73.47 81.0655 73.61C81.3788 73.75 81.6455 73.9467 81.8655 74.2C82.0921 74.4533 82.2655 74.75 82.3855 75.09C82.5055 75.4233 82.5655 75.7833 82.5655 76.17V76.38C82.5655 76.7733 82.5055 77.14 82.3855 77.48C82.2721 77.8133 82.1021 78.11 81.8755 78.37C81.6555 78.6233 81.3888 78.8233 81.0755 78.97C80.7621 79.11 80.4121 79.18 80.0255 79.18C79.6188 79.18 79.2455 79.0967 78.9055 78.93C78.5721 78.7567 78.3021 78.4933 78.0955 78.14C77.8888 77.78 77.7721 77.3167 77.7455 76.75L78.1855 77.42V81H76.7955ZM79.6755 78.01C79.9755 78.01 80.2355 77.9367 80.4555 77.79C80.6821 77.6433 80.8588 77.44 80.9855 77.18C81.1121 76.9133 81.1755 76.6133 81.1755 76.28C81.1755 75.9333 81.1121 75.6333 80.9855 75.38C80.8588 75.1267 80.6821 74.93 80.4555 74.79C80.2355 74.6433 79.9755 74.57 79.6755 74.57C79.4021 74.57 79.1488 74.63 78.9155 74.75C78.6888 74.87 78.5021 75.0467 78.3555 75.28C78.2155 75.5133 78.1455 75.7933 78.1455 76.12V76.52C78.1455 76.8333 78.2188 77.1 78.3655 77.32C78.5121 77.54 78.7021 77.71 78.9355 77.83C79.1688 77.95 79.4155 78.01 79.6755 78.01Z" fill="#D1D5DB"/>
<rect x="20" y="108" width="71" height="24" rx="8" fill="#E5E7EB" stroke="#0D5EA6"/>
<path d="M29.6223 123.04V121.72H31.1323C31.5123 121.72 31.849 121.663 32.1423 121.55C32.4423 121.43 32.6957 121.263 32.9023 121.05C33.109 120.837 33.2657 120.587 33.3723 120.3C33.4857 120.007 33.5423 119.683 33.5423 119.33C33.5423 118.963 33.4857 118.637 33.3723 118.35C33.2657 118.057 33.109 117.807 32.9023 117.6C32.6957 117.393 32.4423 117.237 32.1423 117.13C31.849 117.023 31.5123 116.97 31.1323 116.97H29.6223V115.65H31.0423C31.7023 115.65 32.279 115.747 32.7723 115.94C33.2657 116.133 33.6757 116.4 34.0023 116.74C34.329 117.073 34.5723 117.457 34.7323 117.89C34.899 118.317 34.9823 118.76 34.9823 119.22V119.44C34.9823 119.88 34.899 120.313 34.7323 120.74C34.5723 121.167 34.329 121.553 34.0023 121.9C33.6757 122.247 33.2657 122.523 32.7723 122.73C32.279 122.937 31.7023 123.04 31.0423 123.04H29.6223ZM28.4023 123.04V115.65H29.8223V123.04H28.4023ZM27.6723 119.93V118.77H31.4723V119.93H27.6723ZM39.5339 123V121.39H39.3039V119.6C39.3039 119.287 39.2272 119.053 39.0739 118.9C38.9206 118.747 38.6839 118.67 38.3639 118.67C38.1972 118.67 37.9972 118.673 37.7639 118.68C37.5306 118.687 37.2939 118.697 37.0539 118.71C36.8206 118.717 36.6106 118.727 36.4239 118.74V117.56C36.5772 117.547 36.7506 117.533 36.9439 117.52C37.1372 117.507 37.3339 117.5 37.5339 117.5C37.7406 117.493 37.9339 117.49 38.1139 117.49C38.6739 117.49 39.1372 117.563 39.5039 117.71C39.8772 117.857 40.1572 118.087 40.3439 118.4C40.5372 118.713 40.6339 119.123 40.6339 119.63V123H39.5339ZM37.7839 123.14C37.3906 123.14 37.0439 123.07 36.7439 122.93C36.4506 122.79 36.2206 122.59 36.0539 122.33C35.8939 122.07 35.8139 121.757 35.8139 121.39C35.8139 120.99 35.9106 120.663 36.1039 120.41C36.3039 120.157 36.5806 119.967 36.9339 119.84C37.2939 119.713 37.7139 119.65 38.1939 119.65H39.4539V120.48H38.1739C37.8539 120.48 37.6072 120.56 37.4339 120.72C37.2672 120.873 37.1839 121.073 37.1839 121.32C37.1839 121.567 37.2672 121.767 37.4339 121.92C37.6072 122.073 37.8539 122.15 38.1739 122.15C38.3672 122.15 38.5439 122.117 38.7039 122.05C38.8706 121.977 39.0072 121.857 39.1139 121.69C39.2272 121.517 39.2906 121.283 39.3039 120.99L39.6439 121.38C39.6106 121.76 39.5172 122.08 39.3639 122.34C39.2172 122.6 39.0106 122.8 38.7439 122.94C38.4839 123.073 38.1639 123.14 37.7839 123.14ZM38.3339 116.94C37.7872 116.94 37.3672 116.763 37.0739 116.41C36.7806 116.05 36.6239 115.523 36.6039 114.83H37.6039C37.6239 115.223 37.6939 115.513 37.8139 115.7C37.9339 115.887 38.1072 115.98 38.3339 115.98C38.5672 115.98 38.7472 115.887 38.8739 115.7C39.0006 115.513 39.0706 115.223 39.0839 114.83H40.0439C40.0239 115.523 39.8706 116.05 39.5839 116.41C39.3039 116.763 38.8872 116.94 38.3339 116.94ZM42.2228 123V117.57H43.3228V119.9H43.2228C43.2228 119.347 43.2961 118.887 43.4428 118.52C43.5895 118.147 43.8061 117.867 44.0928 117.68C44.3861 117.493 44.7495 117.4 45.1828 117.4H45.2428C45.8895 117.4 46.3795 117.61 46.7128 118.03C47.0461 118.443 47.2128 119.063 47.2128 119.89V123H45.8228V119.77C45.8228 119.437 45.7261 119.167 45.5328 118.96C45.3461 118.753 45.0861 118.65 44.7528 118.65C44.4128 118.65 44.1361 118.757 43.9228 118.97C43.7161 119.177 43.6128 119.457 43.6128 119.81V123H42.2228ZM50.9272 125.14C50.6672 125.14 50.4005 125.13 50.1272 125.11C49.8605 125.09 49.6105 125.063 49.3772 125.03V123.87C49.6172 123.897 49.8739 123.92 50.1472 123.94C50.4205 123.967 50.6772 123.98 50.9172 123.98C51.3639 123.98 51.7239 123.927 51.9972 123.82C52.2772 123.713 52.4805 123.543 52.6072 123.31C52.7405 123.083 52.8072 122.793 52.8072 122.44V121.37L53.1072 120.69C53.0872 121.19 52.9839 121.617 52.7972 121.97C52.6105 122.317 52.3572 122.583 52.0372 122.77C51.7172 122.95 51.3472 123.04 50.9272 123.04C50.5539 123.04 50.2139 122.97 49.9072 122.83C49.6072 122.69 49.3472 122.497 49.1272 122.25C48.9139 122.003 48.7472 121.713 48.6272 121.38C48.5072 121.047 48.4472 120.69 48.4472 120.31V120.1C48.4472 119.72 48.5072 119.367 48.6272 119.04C48.7539 118.707 48.9305 118.417 49.1572 118.17C49.3839 117.923 49.6539 117.733 49.9672 117.6C50.2805 117.467 50.6272 117.4 51.0072 117.4C51.4539 117.4 51.8405 117.497 52.1672 117.69C52.5005 117.883 52.7605 118.163 52.9472 118.53C53.1339 118.897 53.2372 119.347 53.2572 119.88L53.0172 119.92V117.57H54.1172V122.36C54.1172 123.02 54.0039 123.553 53.7772 123.96C53.5505 124.367 53.2005 124.663 52.7272 124.85C52.2605 125.043 51.6605 125.14 50.9272 125.14ZM51.3272 121.85C51.5939 121.85 51.8372 121.79 52.0572 121.67C52.2772 121.55 52.4539 121.377 52.5872 121.15C52.7205 120.923 52.7872 120.65 52.7872 120.33V119.98C52.7872 119.673 52.7172 119.413 52.5772 119.2C52.4439 118.987 52.2672 118.827 52.0472 118.72C51.8272 118.607 51.5872 118.55 51.3272 118.55C51.0339 118.55 50.7739 118.62 50.5472 118.76C50.3272 118.893 50.1539 119.083 50.0272 119.33C49.9005 119.577 49.8372 119.87 49.8372 120.21C49.8372 120.543 49.9005 120.833 50.0272 121.08C50.1539 121.327 50.3272 121.517 50.5472 121.65C50.7739 121.783 51.0339 121.85 51.3272 121.85ZM57.9916 123V117.57H59.0916V119.9H58.9916C58.9916 119.347 59.0649 118.887 59.2116 118.52C59.3582 118.147 59.5749 117.867 59.8616 117.68C60.1549 117.493 60.5182 117.4 60.9516 117.4H61.0116C61.6582 117.4 62.1482 117.61 62.4816 118.03C62.8149 118.443 62.9816 119.063 62.9816 119.89V123H61.5916V119.77C61.5916 119.437 61.4949 119.167 61.3016 118.96C61.1149 118.753 60.8549 118.65 60.5216 118.65C60.1816 118.65 59.9049 118.757 59.6916 118.97C59.4849 119.177 59.3816 119.457 59.3816 119.81V123H57.9916ZM64.5759 123V115.7H65.9659V119.96H65.7259C65.7259 119.413 65.7959 118.95 65.9359 118.57C66.0759 118.19 66.2826 117.9 66.5559 117.7C66.8359 117.5 67.1893 117.4 67.6159 117.4H67.6759C68.2959 117.4 68.7659 117.613 69.0859 118.04C69.4059 118.467 69.5659 119.087 69.5659 119.9V123H68.1759V119.77C68.1759 119.423 68.0759 119.15 67.8759 118.95C67.6826 118.75 67.4259 118.65 67.1059 118.65C66.7659 118.65 66.4893 118.763 66.2759 118.99C66.0693 119.21 65.9659 119.5 65.9659 119.86V123H64.5759ZM73.3903 117.43C74.1236 117.43 74.6836 117.59 75.0703 117.91C75.4636 118.223 75.6603 118.707 75.6603 119.36V123H74.6203L74.3303 122.26H74.2903C74.137 122.453 73.977 122.613 73.8103 122.74C73.6503 122.867 73.4636 122.957 73.2503 123.01C73.0436 123.07 72.787 123.1 72.4803 123.1C72.1603 123.1 71.8703 123.04 71.6103 122.92C71.357 122.793 71.157 122.603 71.0103 122.35C70.8636 122.09 70.7903 121.763 70.7903 121.37C70.7903 120.79 70.9936 120.363 71.4003 120.09C71.807 119.81 72.417 119.657 73.2303 119.63L74.1803 119.6V119.36C74.1803 119.073 74.1036 118.863 73.9503 118.73C73.8036 118.597 73.597 118.53 73.3303 118.53C73.0636 118.53 72.8036 118.57 72.5503 118.65C72.297 118.723 72.0436 118.817 71.7903 118.93L71.3003 117.92C71.5936 117.767 71.917 117.647 72.2703 117.56C72.6303 117.473 73.0036 117.43 73.3903 117.43ZM73.6003 120.49C73.1203 120.503 72.787 120.59 72.6003 120.75C72.4136 120.91 72.3203 121.12 72.3203 121.38C72.3203 121.607 72.387 121.77 72.5203 121.87C72.6536 121.963 72.827 122.01 73.0403 122.01C73.3603 122.01 73.6303 121.917 73.8503 121.73C74.0703 121.537 74.1803 121.267 74.1803 120.92V120.47L73.6003 120.49ZM74.2703 115.34C74.3636 115.487 74.4836 115.653 74.6303 115.84C74.7836 116.02 74.9403 116.197 75.1003 116.37C75.2603 116.543 75.4003 116.69 75.5203 116.81V116.94H74.5303C74.357 116.833 74.167 116.71 73.9603 116.57C73.7536 116.423 73.5636 116.26 73.3903 116.08C73.217 116.26 73.0303 116.42 72.8303 116.56C72.6303 116.7 72.4436 116.827 72.2703 116.94H71.2803V116.81C71.407 116.683 71.547 116.537 71.7003 116.37C71.8603 116.197 72.0136 116.02 72.1603 115.84C72.3136 115.653 72.437 115.487 72.5303 115.34H74.2703ZM73.2703 125.1C73.0436 125.1 72.8503 125.047 72.6903 124.94C72.537 124.833 72.4603 124.643 72.4603 124.37C72.4603 124.09 72.537 123.897 72.6903 123.79C72.8503 123.69 73.0436 123.64 73.2703 123.64C73.4903 123.64 73.6803 123.69 73.8403 123.79C74.0003 123.897 74.0803 124.09 74.0803 124.37C74.0803 124.643 74.0003 124.833 73.8403 124.94C73.6803 125.047 73.4903 125.1 73.2703 125.1ZM77.2955 125V117.57H78.3955V119.91L78.2255 119.9C78.2521 119.347 78.3655 118.883 78.5655 118.51C78.7721 118.137 79.0455 117.86 79.3855 117.68C79.7255 117.493 80.1055 117.4 80.5255 117.4C80.9121 117.4 81.2588 117.47 81.5655 117.61C81.8788 117.75 82.1455 117.947 82.3655 118.2C82.5921 118.453 82.7655 118.75 82.8855 119.09C83.0055 119.423 83.0655 119.783 83.0655 120.17V120.38C83.0655 120.773 83.0055 121.14 82.8855 121.48C82.7721 121.813 82.6021 122.11 82.3755 122.37C82.1555 122.623 81.8888 122.823 81.5755 122.97C81.2621 123.11 80.9121 123.18 80.5255 123.18C80.1188 123.18 79.7455 123.097 79.4055 122.93C79.0721 122.757 78.8021 122.493 78.5955 122.14C78.3888 121.78 78.2721 121.317 78.2455 120.75L78.6855 121.42V125H77.2955ZM80.1755 122.01C80.4755 122.01 80.7355 121.937 80.9555 121.79C81.1821 121.643 81.3588 121.44 81.4855 121.18C81.6121 120.913 81.6755 120.613 81.6755 120.28C81.6755 119.933 81.6121 119.633 81.4855 119.38C81.3588 119.127 81.1821 118.93 80.9555 118.79C80.7355 118.643 80.4755 118.57 80.1755 118.57C79.9021 118.57 79.6488 118.63 79.4155 118.75C79.1888 118.87 79.0021 119.047 78.8555 119.28C78.7155 119.513 78.6455 119.793 78.6455 120.12V120.52C78.6455 120.833 78.7188 121.1 78.8655 121.32C79.0121 121.54 79.2021 121.71 79.4355 121.83C79.6688 121.95 79.9155 122.01 80.1755 122.01Z" fill="#0D5EA6"/>
</svg>
